<?xml version="1.0" standalone="no"?>
<!DOCTYPE svg PUBLIC "-//W3C//DTD SVG 1.1//EN" "http://www.w3.org/Graphics/SVG/1.1/DTD/svg11.dtd" >
<svg xmlns="http://www.w3.org/2000/svg" xmlns:xlink="http://www.w3.org/1999/xlink" version="1.1">
<metadata>
Created by FontForge 20170731 at Mon Sep  5 11:57:39 2016
 By Aleksey,,,
Copyright (c) 2016 by Chris Simpson.
</metadata>
<defs>
<font id="Metropolis-ExtraBoldItalic" horiz-adv-x="669" >
  <font-face 
    font-family="Metropolis Extra Bold"
    font-weight="800"
    font-style="italic"
    font-stretch="normal"
    units-per-em="1000"
    panose-1="0 0 9 0 0 0 0 0 0 0"
    ascent="800"
    descent="-200"
    x-height="517"
    cap-height="687"
    bbox="-315 -300 1190 983"
    underline-thickness="20"
    underline-position="-173"
    slope="-11.75"
    unicode-range="U+0020-2212"
  />
<missing-glyph horiz-adv-x="500" 
d="M410 795v-1000h-317v1000h317zM333 728h-165v-33h65v-37h-66v-33h166v33h-66v37h66v33zM267 599h-100v-104h166v34h-66v70zM233 565v-36h-33v36h33zM333 468h-166v-33h66v-37h-66v-33h100v70h66v33zM333 408h-33v-66h-133v-34h166v100zM333 286h-100v-56h34v23h33v-47
h-100v80h-33v-113h166v113zM333 113h-166v-113h166v113zM300 80v-47h-100v47h100zM333 -23h-166v-33h70l-70 -47v-33h166v33h-102l70 47h32v33z" />
    <glyph glyph-name=".notdef" horiz-adv-x="500" 
d="M410 795v-1000h-317v1000h317zM333 728h-165v-33h65v-37h-66v-33h166v33h-66v37h66v33zM267 599h-100v-104h166v34h-66v70zM233 565v-36h-33v36h33zM333 468h-166v-33h66v-37h-66v-33h100v70h66v33zM333 408h-33v-66h-133v-34h166v100zM333 286h-100v-56h34v23h33v-47
h-100v80h-33v-113h166v113zM333 113h-166v-113h166v113zM300 80v-47h-100v47h100zM333 -23h-166v-33h70l-70 -47v-33h166v33h-102l70 47h32v33z" />
    <glyph glyph-name=".null" horiz-adv-x="0" 
 />
    <glyph glyph-name="nonmarkingreturn" horiz-adv-x="333" 
 />
    <glyph glyph-name="space" unicode=" " horiz-adv-x="276" 
 />
    <glyph glyph-name="exclam" unicode="!" horiz-adv-x="317" 
d="M97 258l51 429h191l-127 -429h-115zM115 -12q-41 0 -67 27t-26 67q0 47 34.5 79.5t80.5 32.5q39 0 64.5 -26.5t25.5 -64.5q0 -47 -34 -81t-78 -34z" />
    <glyph glyph-name="quotedbl" unicode="&#x22;" horiz-adv-x="550" 
d="M137 382q-13 115 -13 162q1 68 29.5 111.5t81.5 43.5q31 0 50.5 -20t19.5 -51q0 -55 -104 -246h-64zM399 382q-13 115 -13 162q1 68 29.5 111.5t81.5 43.5q31 0 50.5 -20t19.5 -51q0 -55 -104 -246h-64z" />
    <glyph glyph-name="numbersign" unicode="#" horiz-adv-x="678" 
d="M652 412h-90l-64 -139h89l-54 -120h-91l-70 -153h-124l70 153h-101l-70 -153h-124l70 153h-86l54 120h88l64 139h-91l55 120h91l71 155h124l-71 -155h101l71 155h124l-71 -155h89zM374 273l64 139h-101l-64 -139h101z" />
    <glyph glyph-name="dollar" unicode="$" horiz-adv-x="640" 
d="M374 416q122 -28 173 -66.5t51 -113.5q0 -103 -80.5 -171t-205.5 -76l-13 -63h-104l14 68q-140 22 -225 113l113 107q40 -40 93 -61.5t104 -21.5q60 0 95 25t35 58q0 19 -20.5 29t-88.5 27q-47 12 -75.5 20.5t-60.5 23.5t-49.5 32.5t-29 44t-11.5 61.5q0 98 73 166.5
t193 78.5l13 62h104l-14 -65q119 -17 198 -93l-105 -114q-37 34 -84.5 51.5t-86.5 17.5q-53 0 -85 -25t-32 -57q0 -21 22 -31.5t89 -26.5z" />
    <glyph glyph-name="percent" unicode="%" horiz-adv-x="851" 
d="M237 340q-69 0 -110 41t-41 105q0 85 59 146.5t144 61.5q71 0 111.5 -41.5t40.5 -105.5q0 -85 -59 -146t-145 -61zM70 0l624 687h123l-623 -687h-124zM236 437q40 0 69 36t29 77q0 22 -11.5 34.5t-31.5 12.5q-41 0 -69.5 -36.5t-28.5 -77.5q0 -46 43 -46zM596 -11
q-70 0 -111.5 41.5t-41.5 105.5q0 84 60 146t145 62q70 0 110.5 -41.5t40.5 -106.5q0 -84 -59.5 -145.5t-143.5 -61.5zM594 86q41 0 69.5 36.5t28.5 77.5q0 46 -43 46q-41 0 -69.5 -35.5t-28.5 -78.5q0 -46 43 -46z" />
    <glyph glyph-name="ampersand" unicode="&#x26;" horiz-adv-x="679" 
d="M662 303q-70 -97 -131 -158q11 -15 23.5 -32t30 -39.5t27.5 -36.5l-141 -52l-48 69q-100 -66 -207 -66q-94 0 -151 44.5t-57 122.5q0 88 49 141.5t146 93.5q-27 51 -27 90q0 92 69 154t162 62q81 0 130 -43t49 -111q0 -73 -47.5 -116.5t-149.5 -87.5q21 -31 66 -92
q54 58 96 127zM408 579q-35 0 -63.5 -28t-28.5 -64q0 -24 14 -53q58 21 87 45t29 64q0 36 -38 36zM242 114q50 0 110 41q-57 83 -87 130q-89 -46 -89 -115q0 -26 18.5 -41t47.5 -15z" />
    <glyph glyph-name="quotesingle" unicode="'" horiz-adv-x="288" 
d="M137 382q-13 115 -13 162q1 68 29.5 111.5t81.5 43.5q31 0 50.5 -20t19.5 -51q0 -55 -104 -246h-64z" />
    <glyph glyph-name="parenleft" unicode="(" horiz-adv-x="396" 
d="M192 -166q-153 123 -153 331q0 161 87.5 304.5t235.5 234.5l76 -98q-237 -202 -237 -455q0 -126 88 -234z" />
    <glyph glyph-name="parenright" unicode=")" horiz-adv-x="396" 
d="M37 -174l-76 99q236 200 236 455q0 124 -87 234l97 82q152 -122 152 -330q0 -161 -87.5 -305t-234.5 -235z" />
    <glyph glyph-name="asterisk" unicode="*" horiz-adv-x="393" 
d="M213 335q-18 0 -28 11.5t-7 27.5q5 19 23.5 58.5t22.5 52.5q-13 -8 -47.5 -37t-52.5 -38q-15 -8 -30.5 -3t-20.5 21q-5 15 2 32t22 24q18 10 59.5 20t54.5 15q-10 5 -47.5 15.5t-51.5 20.5q-12 8 -12.5 24t11.5 32q12 15 29.5 20.5t29.5 -2.5q14 -9 36.5 -38t31.5 -38
q1 12 -1.5 55.5t1.5 55.5q4 16 18.5 27.5t32.5 11.5q17 0 27.5 -11.5t6.5 -27.5q-4 -19 -23.5 -59t-23.5 -52q12 8 47.5 36.5t53.5 38.5q14 8 30 3t21 -21q5 -15 -2 -32t-22 -24q-18 -10 -60.5 -20t-55.5 -15q10 -5 48.5 -15.5t52.5 -20.5q12 -8 12.5 -24t-11.5 -32
q-12 -15 -29.5 -20.5t-29.5 2.5q-14 9 -37 38.5t-32 37.5q0 -10 3.5 -55.5t-1.5 -55.5q-4 -16 -18.5 -27.5t-32.5 -11.5z" />
    <glyph glyph-name="plus" unicode="+" horiz-adv-x="606" 
d="M578 401l-28 -134h-173l-37 -179h-143l37 179h-175l28 134h175l37 178h143l-37 -178h173z" />
    <glyph glyph-name="comma" unicode="," horiz-adv-x="304" 
d="M61 -155l-57 53q55 39 92 96q-35 0 -58.5 23.5t-23.5 61.5q0 46 34.5 80.5t77.5 34.5q42 0 66.5 -30t24.5 -79q0 -121 -156 -240z" />
    <glyph glyph-name="hyphen" unicode="-" horiz-adv-x="363" 
d="M31 206l30 141h279l-30 -141h-279z" />
    <glyph glyph-name="period" unicode="." horiz-adv-x="301" 
d="M107 -12q-41 0 -67 27t-26 67q0 47 34.5 79.5t80.5 32.5q39 0 64.5 -26.5t25.5 -64.5q0 -47 -34 -81t-78 -34z" />
    <glyph glyph-name="slash" unicode="/" horiz-adv-x="481" 
d="M-95 -74l512 817h180l-512 -817h-180z" />
    <glyph glyph-name="zero" unicode="0" horiz-adv-x="713" 
d="M311 -12q-120 0 -190.5 75t-70.5 199q0 113 49.5 213t139.5 162t198 62q120 0 190.5 -74.5t70.5 -198.5q0 -113 -49.5 -213.5t-139.5 -162.5t-198 -62zM321 143q83 0 143 88t60 188q0 58 -25.5 91.5t-71.5 33.5q-83 0 -143 -87.5t-60 -187.5q0 -58 26 -92t71 -34z" />
    <glyph glyph-name="one" unicode="1" horiz-adv-x="434" 
d="M139 0l104 494l-129 -72l-45 119l246 146h137l-143 -687h-170z" />
    <glyph glyph-name="two" unicode="2" horiz-adv-x="621" 
d="M-8 0l27 139l291 193q136 89 136 162q0 24 -18.5 37t-49.5 13q-87 0 -188 -90l-92 115q133 130 294 130q105 0 167 -52.5t62 -137.5q0 -90 -53 -156t-154 -127l-126 -73h270l-32 -153h-534z" />
    <glyph glyph-name="three" unicode="3" horiz-adv-x="611" 
d="M258 -13q-182 0 -269 119l114 105q55 -71 156 -71q55 0 95.5 27t40.5 67q0 21 -23.5 30.5t-80.5 9.5l-87 -1l30 144h75q53 -1 88 21t40 59q3 24 -18.5 36.5t-63.5 12.5q-85 0 -177 -78l-81 114q122 117 285 117q110 0 171.5 -45.5t61.5 -119.5q0 -68 -43.5 -115.5
t-118.5 -68.5q48 -11 80 -46t32 -88q0 -102 -91 -165.5t-216 -63.5z" />
    <glyph glyph-name="four" unicode="4" horiz-adv-x="657" 
d="M315 0l28 131h-333l10 130l399 425h210l-86 -413h87l-29 -142h-87l-28 -131h-171zM204 273h168l51 236z" />
    <glyph glyph-name="five" unicode="5" horiz-adv-x="623" 
d="M256 -13q-165 0 -260 109l116 111q64 -72 153 -72q58 0 102 35t44 82q0 27 -22.5 42t-62.5 15q-73 0 -143 -47l-108 48l88 377h472l-31 -153h-315l-34 -121q59 36 131 36q86 0 141 -47.5t55 -130.5q0 -127 -93.5 -205.5t-232.5 -78.5z" />
    <glyph glyph-name="six" unicode="6" horiz-adv-x="652" 
d="M407 449q89 0 145 -48.5t56 -131.5q0 -120 -91.5 -200.5t-220.5 -80.5q-125 0 -188.5 66t-63.5 181q0 123 50.5 229t144 170.5t208.5 64.5q122 0 209 -75l-97 -122q-53 48 -119 48q-60 0 -108 -39.5t-78 -104.5q69 43 153 43zM294 133q54 0 96 36t42 83q0 28 -23.5 44
t-60.5 16q-40 0 -76 -21.5t-60 -57.5v-17q0 -43 19 -63t63 -20z" />
    <glyph glyph-name="seven" unicode="7" horiz-adv-x="607" 
d="M50 0l378 534h-328l32 153h527l-25 -129l-387 -558h-197z" />
    <glyph glyph-name="eight" unicode="8" horiz-adv-x="630" 
d="M270 -12q-112 0 -183.5 46.5t-71.5 126.5q0 70 45.5 120.5t121.5 78.5q-82 41 -82 127q0 67 44.5 116.5t110 72.5t140.5 23q104 0 172.5 -44.5t68.5 -120.5q0 -124 -147 -184q97 -45 97 -141q0 -70 -46.5 -121.5t-116.5 -75.5t-153 -24zM336 413q48 3 88.5 32t40.5 66
q0 21 -20.5 34t-56.5 13q-49 0 -87.5 -28.5t-38.5 -65.5q0 -22 21.5 -35.5t52.5 -15.5zM278 130q54 0 98 29t44 69q0 23 -26.5 37t-62.5 16q-52 -2 -97 -32t-45 -69q0 -24 23.5 -37t65.5 -13z" />
    <glyph glyph-name="nine" unicode="9" horiz-adv-x="653" 
d="M392 699q125 0 188.5 -66t63.5 -181q0 -123 -50.5 -229t-144 -170.5t-208.5 -64.5q-122 0 -209 75l97 122q52 -48 119 -48q60 0 108 39.5t78 104.5q-69 -43 -153 -43q-89 0 -145 48.5t-56 131.5q0 120 91.5 200.5t220.5 80.5zM340 375q40 0 76 21.5t60 57.5v17
q0 43 -19 63t-63 20q-54 0 -96 -36t-42 -83q0 -28 23.5 -44t60.5 -16z" />
    <glyph glyph-name="colon" unicode=":" horiz-adv-x="302" 
d="M180 331q-42 0 -68.5 27t-26.5 67q0 47 35 79.5t80 32.5q40 0 65.5 -26.5t25.5 -65.5q0 -46 -34 -80t-77 -34zM108 -12q-41 0 -67.5 27t-26.5 67q0 47 35 79.5t81 32.5q39 0 64.5 -26.5t25.5 -64.5q0 -47 -34 -81t-78 -34z" />
    <glyph glyph-name="semicolon" unicode=";" horiz-adv-x="306" 
d="M195 403q-41 0 -67 27t-26 67q0 47 34.5 79.5t80.5 32.5q39 0 64.5 -26.5t25.5 -64.5q0 -47 -34 -81t-78 -34zM64 -155l-57 53q55 39 92 96q-35 0 -58.5 23.5t-23.5 61.5q0 46 34.5 80.5t77.5 34.5q42 0 66.5 -30t24.5 -79q0 -121 -156 -240z" />
    <glyph glyph-name="less" unicode="&#x3c;" horiz-adv-x="597" 
d="M490 80l-429 196l26 135l512 196l-26 -134l-369 -130l313 -128z" />
    <glyph glyph-name="equal" unicode="=" horiz-adv-x="606" 
d="M84 387l28 134h491l-28 -134h-491zM36 156l28 134h491l-28 -134h-491z" />
    <glyph glyph-name="greater" unicode="&#x3e;" horiz-adv-x="596" 
d="M34 80l27 135l368 128l-314 130l26 134l431 -196l-27 -135z" />
    <glyph glyph-name="question" unicode="?" horiz-adv-x="507" 
d="M161 250l32 157q61 2 114.5 28.5t53.5 62.5q0 48 -68 48q-67 0 -128 -54l-83 106q115 101 252 101q92 0 146.5 -47t54.5 -123q0 -82 -59.5 -144.5t-145.5 -82.5l-11 -52h-158zM212 -12q-41 0 -67 27t-26 67q0 47 34.5 79.5t80.5 32.5q39 0 64.5 -26.5t25.5 -64.5
q0 -47 -34 -81t-78 -34z" />
    <glyph glyph-name="at" unicode="@" horiz-adv-x="880" 
d="M346 -116q-140 0 -225.5 83.5t-85.5 213.5q0 124 74 239t194 185.5t247 70.5q139 0 224 -80t85 -199q0 -124 -81.5 -224.5t-190.5 -100.5q-96 0 -110 78q-74 -76 -159 -76q-64 0 -100 36.5t-36 99.5q0 109 88 203t190 94q87 0 116 -68l23 55l136 -11q-17 -42 -37 -90
t-31 -75t-22 -54.5t-15.5 -44t-4.5 -26.5q0 -38 42 -38t76.5 39.5t52.5 93.5t18 105q0 106 -75 174t-200 68q-87 0 -172 -38t-148 -99.5t-102 -144t-39 -166.5q0 -115 77 -189t203 -74q110 0 226 61l14 -32q-124 -69 -252 -69zM392 189q51 0 93 48.5t42 100.5q0 25 -15 39.5
t-42 14.5q-54 0 -97 -46t-43 -98q0 -28 16.5 -43.5t45.5 -15.5z" />
    <glyph glyph-name="A" unicode="A" horiz-adv-x="771" 
d="M521 0l-20 105h-268l-63 -105h-196l415 687h195l-2 -4l128 -683h-189zM311 234h166l-40 209z" />
    <glyph glyph-name="B" unicode="B" horiz-adv-x="705" 
d="M13 0l143 687h354q83 0 134.5 -42t51.5 -108q0 -58 -35.5 -106t-94.5 -75q42 -20 67.5 -59t25.5 -86q0 -94 -78.5 -152.5t-188.5 -58.5h-379zM270 415h142q44 0 74 24.5t30 61.5q-2 41 -67 41h-153zM213 145h168q47 0 79 26t32 66q0 46 -72 46h-178z" />
    <glyph glyph-name="C" unicode="C" horiz-adv-x="705" 
d="M360 -12q-126 0 -217 89.5t-91 216.5q0 105 60.5 199t160.5 150t210 56q81 0 150.5 -34t111.5 -88l-140 -101q-44 68 -132 68q-97 0 -172.5 -75.5t-75.5 -170.5q0 -68 45 -111.5t105 -43.5q40 0 88 22t81 57l108 -121q-57 -50 -138.5 -81.5t-153.5 -31.5z" />
    <glyph glyph-name="D" unicode="D" horiz-adv-x="761" 
d="M13 0l143 687h246q150 0 246 -79.5t96 -204.5q0 -164 -140.5 -283.5t-333.5 -119.5h-257zM216 155h101q103 0 178 71.5t75 169.5q0 60 -46 98t-118 38h-111z" />
    <glyph glyph-name="E" unicode="E" horiz-adv-x="646" 
d="M662 534h-370l-20 -107h334l-32 -153h-336l-24 -121h369l-32 -153h-541l143 687h541z" />
    <glyph glyph-name="F" unicode="F" horiz-adv-x="643" 
d="M662 534h-370l-24 -123h335l-32 -153h-337l-53 -258h-171l143 687h541z" />
    <glyph glyph-name="G" unicode="G" horiz-adv-x="744" 
d="M381 260l27 129h313l-60 -288q-62 -54 -140.5 -83.5t-154.5 -29.5q-135 0 -225 87t-90 213q0 108 64 204t166.5 151.5t212.5 55.5q80 0 149 -33t111 -89l-140 -101q-20 33 -55.5 50.5t-76.5 17.5q-99 0 -178 -78t-79 -173q0 -63 43.5 -106.5t109.5 -43.5q67 0 134 45
l15 72h-146z" />
    <glyph glyph-name="H" unicode="H" horiz-adv-x="751" 
d="M605 687h171l-143 -687h-170l55 274h-281l-56 -274h-171l143 687h171l-53 -260h282z" />
    <glyph glyph-name="I" unicode="I" horiz-adv-x="304" 
d="M13 0l143 687h171l-143 -687h-171z" />
    <glyph glyph-name="J" unicode="J" horiz-adv-x="545" 
d="M196 -12q-70 0 -131 34t-89 85l128 98q9 -29 32.5 -45.5t51.5 -16.5q43 0 79 30.5t45 73.5l91 440h171l-98 -470q-21 -103 -99 -166t-181 -63z" />
    <glyph glyph-name="K" unicode="K" horiz-adv-x="705" 
d="M12 0l143 687h171l-57 -270l299 270h219l-328 -296l196 -391h-197l-135 272l-98 -85l-42 -187h-171z" />
    <glyph glyph-name="L" unicode="L" horiz-adv-x="589" 
d="M212 153h329l-32 -153h-501l143 687h170z" />
    <glyph glyph-name="M" unicode="M" horiz-adv-x="872" 
d="M13 0l143 687h169l122 -358l274 358h173l-143 -687h-171l85 398l-271 -358l-125 358l-85 -398h-171z" />
    <glyph glyph-name="N" unicode="N" horiz-adv-x="775" 
d="M13 0l143 687h169l215 -406l86 406h171l-143 -687h-168l-216 406l-86 -406h-171z" />
    <glyph glyph-name="O" unicode="O" horiz-adv-x="813" 
d="M360 -12q-132 0 -221 87t-89 212q0 108 63 204t164.5 152t210.5 56q134 0 222 -86t88 -212q0 -81 -37.5 -158t-98.5 -132.5t-140.5 -89t-161.5 -33.5zM373 143q97 0 174.5 79.5t77.5 172.5q0 64 -42 106.5t-107 42.5q-96 0 -174 -79t-78 -172q0 -64 42.5 -107t106.5 -43z
" />
    <glyph glyph-name="P" unicode="P" horiz-adv-x="665" 
d="M10 0l143 687h313q99 0 160 -54.5t61 -142.5q0 -117 -90 -196t-219 -79h-152l-45 -215h-171zM258 371h130q48 0 86.5 33t38.5 73q0 25 -22 39.5t-60 14.5h-139z" />
    <glyph glyph-name="Q" unicode="Q" horiz-adv-x="813" 
d="M798 401q0 -139 -104 -258l46 -48l-98 -95l-53 56q-109 -68 -229 -68q-132 0 -221 87t-89 212q0 108 63 204t164.5 152t210.5 56q134 0 222 -86t88 -212zM373 143q54 0 105 27l-58 61l98 95l62 -64q45 64 45 133q0 64 -42 106.5t-107 42.5q-96 0 -174 -79t-78 -172
q0 -64 42.5 -107t106.5 -43z" />
    <glyph glyph-name="R" unicode="R" horiz-adv-x="707" 
d="M687 490q0 -88 -53.5 -157t-140.5 -99l142 -234h-190l-131 215h-88l-45 -215h-171l143 687h313q99 0 160 -54.5t61 -142.5zM292 531l-34 -160h130q48 0 86.5 33t38.5 73q0 25 -22 39.5t-60 14.5h-139z" />
    <glyph glyph-name="S" unicode="S" horiz-adv-x="640" 
d="M281 -12q-88 0 -167 32t-130 87l113 107q40 -40 93 -61.5t104 -21.5q60 0 95 25t35 58q0 19 -20.5 29t-88.5 27q-47 12 -75.5 20.5t-60.5 23.5t-49.5 32.5t-29 44t-11.5 61.5q0 106 85.5 176.5t221.5 70.5q159 0 260 -98l-105 -114q-37 34 -84.5 51.5t-86.5 17.5
q-53 0 -85 -25t-32 -57q0 -21 22 -31.5t89 -26.5q122 -28 173 -66.5t51 -113.5q0 -110 -90.5 -179t-226.5 -69z" />
    <glyph glyph-name="T" unicode="T" horiz-adv-x="642" 
d="M182 0l111 534h-208l31 153h588l-31 -153h-209l-111 -534h-171z" />
    <glyph glyph-name="U" unicode="U" horiz-adv-x="758" 
d="M332 -12q-143 0 -217 90.5t-45 229.5l79 379h170l-80 -385q-14 -72 15 -115.5t91 -43.5q68 0 123.5 50t70.5 123l77 371h171l-82 -393q-28 -137 -131.5 -221.5t-241.5 -84.5z" />
    <glyph glyph-name="V" unicode="V" horiz-adv-x="750" 
d="M636 687h196l-415 -687h-195l2 4l-128 683h189l84 -443z" />
    <glyph glyph-name="W" unicode="W" horiz-adv-x="1077" 
d="M160 0l-57 687h182l15 -429l233 429h185l51 -429l196 429h187l-342 -687h-172l-60 435l-246 -435h-172z" />
    <glyph glyph-name="X" unicode="X" horiz-adv-x="730" 
d="M809 687l-326 -350l172 -337h-193l-104 204l-190 -204h-211l326 350l-172 337h193l104 -203l189 203h212z" />
    <glyph glyph-name="Y" unicode="Y" horiz-adv-x="701" 
d="M209 0l52 237l-173 450h160l117 -302l233 302h194l-360 -450l-52 -237h-171z" />
    <glyph glyph-name="Z" unicode="Z" horiz-adv-x="662" 
d="M-7 0l23 128l428 406h-334l32 153h570l-25 -128l-425 -406h344l-32 -153h-581z" />
    <glyph glyph-name="bracketleft" unicode="[" horiz-adv-x="393" 
d="M-18 -151l177 849h283l-22 -108h-152l-133 -633h153l-22 -108h-284z" />
    <glyph glyph-name="backslash" unicode="\" horiz-adv-x="474" 
d="M258 -74l-172 817h173l172 -817h-173z" />
    <glyph glyph-name="bracketright" unicode="]" horiz-adv-x="392" 
d="M-44 -151l22 108h153l132 633h-153l23 108h283l-177 -849h-283z" />
    <glyph glyph-name="asciicircum" unicode="^" horiz-adv-x="487" 
d="M72 413l203 274h115l89 -274h-112l-51 172l-124 -172h-120z" />
    <glyph glyph-name="underscore" unicode="_" horiz-adv-x="592" 
d="M-88 -156l19 92h596l-19 -92h-596z" />
    <glyph glyph-name="grave" unicode="`" horiz-adv-x="384" 
d="M279 574l-122 134l149 26l81 -160h-108z" />
    <glyph glyph-name="a" unicode="a" 
d="M496 517h169l-108 -517h-169l12 60q-75 -72 -174 -72q-88 0 -142.5 59t-54.5 152q0 131 84 230.5t206 99.5q110 0 161 -90zM285 129q65 0 113.5 53.5t48.5 119.5q0 38 -24.5 62t-63.5 24q-68 0 -117.5 -51.5t-49.5 -119.5q0 -39 25.5 -63.5t67.5 -24.5z" />
    <glyph glyph-name="b" unicode="b" 
d="M443 529q88 0 142.5 -58.5t54.5 -151.5q0 -133 -84 -232t-206 -99q-108 0 -160 89l-16 -77h-170l145 699h170l-50 -241q76 71 174 71zM311 129q67 0 116.5 52t49.5 119q0 39 -25 63.5t-67 24.5q-66 0 -114.5 -53t-48.5 -120q0 -38 24.5 -62t64.5 -24z" />
    <glyph glyph-name="c" unicode="c" horiz-adv-x="554" 
d="M270 -12q-103 0 -172 67t-69 164q0 125 103.5 217.5t232.5 92.5q126 0 197 -97l-124 -83q-11 18 -35 28.5t-48 10.5q-64 0 -115 -51.5t-51 -113.5q0 -40 26.5 -67t66.5 -27q63 0 116 51l99 -102q-98 -90 -227 -90z" />
    <glyph glyph-name="d" unicode="d" 
d="M533 699h170l-145 -699h-170l12 59q-76 -71 -174 -71q-88 0 -142.5 59t-54.5 152q0 131 84 230.5t206 99.5q108 0 160 -89zM285 129q65 0 113.5 53.5t48.5 119.5q0 38 -24.5 62t-63.5 24q-68 0 -117.5 -51.5t-49.5 -119.5q0 -39 25.5 -63.5t67.5 -24.5z" />
    <glyph glyph-name="e" unicode="e" horiz-adv-x="562" 
d="M291 212h-114v-2q0 -85 84 -85q70 0 136 49l86 -110q-41 -35 -101.5 -55.5t-120.5 -20.5q-106 0 -169.5 60.5t-63.5 159.5q0 133 93.5 227t225.5 94q87 0 142.5 -39.5t55.5 -101.5q0 -86 -67 -133t-187 -43zM341 393q-85 0 -134 -78h104q40 0 62.5 12t22.5 33
q0 14 -15.5 23.5t-39.5 9.5z" />
    <glyph glyph-name="f" unicode="f" horiz-adv-x="386" 
d="M383 587q-30 0 -50 -19t-26 -44l-1 -7h107l-28 -135h-108l-79 -382h-162l80 382h-69l29 135h68l9 44q15 72 66.5 115.5t117.5 43.5q78 0 126 -53l-46 -92q-13 12 -34 12z" />
    <glyph glyph-name="g" unicode="g" horiz-adv-x="650" 
d="M476 517h170l-98 -469q-21 -100 -110 -160t-210 -60q-142 0 -228 73l73 110q41 -42 134 -42q67 0 117 29t59 72l7 34q-74 -66 -169 -66q-85 0 -137.5 55t-52.5 144q0 114 79 203t189 89q55 0 99 -24t63 -61zM285 179q48 0 89 31t54 75l3 16q1 5 1 14q0 34 -21 53.5
t-59 19.5q-58 0 -102.5 -41t-44.5 -94q0 -36 21.5 -55t58.5 -19z" />
    <glyph glyph-name="h" unicode="h" horiz-adv-x="620" 
d="M420 529q75 0 119.5 -44t44.5 -115q0 -7 -0.5 -12.5t-1.5 -14.5t-2.5 -17.5t-4.5 -25t-6.5 -32.5t-10 -45t-12 -57t-15.5 -74.5t-20 -91.5h-162q66 312 66 326q0 29 -16.5 45.5t-45.5 16.5q-40 0 -74 -26t-45 -62l-62 -300h-170l145 699h170l-48 -231q59 61 151 61z" />
    <glyph glyph-name="i" unicode="i" horiz-adv-x="288" 
d="M222 581q-36 0 -59.5 23.5t-23.5 57.5q0 40 30 68.5t68 28.5q34 0 57 -24t23 -58q0 -38 -29 -67t-66 -29zM5 0l108 517h169l-108 -517h-169z" />
    <glyph glyph-name="j" unicode="j" horiz-adv-x="288" 
d="M223 580q-36 0 -59 24t-23 59q0 37 29 66t68 29q35 0 57.5 -24t22.5 -59q0 -37 -29 -66t-66 -29zM-23 -178q-65 0 -113 25l32 118q14 -6 43 -6q24 0 45 19t26 44l103 495h169l-110 -528q-15 -76 -69 -121.5t-126 -45.5z" />
    <glyph glyph-name="k" unicode="k" horiz-adv-x="579" 
d="M636 517l-240 -226l129 -291h-187l-72 183l-69 -63l-25 -120h-170l145 699h170l-79 -383l203 201h195z" />
    <glyph glyph-name="l" unicode="l" horiz-adv-x="288" 
d="M6 0l145 699h170l-145 -699h-170z" />
    <glyph glyph-name="m" unicode="m" horiz-adv-x="941" 
d="M736 529q76 0 122.5 -45.5t46.5 -116.5q0 -22 -35 -190q-22 -104 -37 -178h-162q67 324 66 330q-2 59 -58 59q-41 0 -75 -26.5t-39 -62.5q-12 -55 -63 -300h-162q67 324 66 330q0 59 -57 59q-41 0 -74.5 -27t-40.5 -62v3l-63 -302h-169l108 517h169l-12 -58q51 70 142 70
q51 0 91 -24t59 -66q28 43 75.5 66.5t101.5 23.5z" />
    <glyph glyph-name="n" unicode="n" horiz-adv-x="620" 
d="M420 529q75 0 119.5 -44t44.5 -115q0 -7 -0.5 -12.5t-1.5 -14.5t-2.5 -17.5t-4.5 -25t-6.5 -32.5t-10 -45t-12 -57t-15.5 -74.5t-20 -91.5h-162q66 312 66 326q0 29 -16.5 45.5t-45.5 16.5q-43 0 -78 -29t-43 -68v1l-61 -292h-169l108 517h169l-10 -49q59 61 151 61z" />
    <glyph glyph-name="o" unicode="o" horiz-adv-x="635" 
d="M272 -12q-104 0 -173.5 67t-69.5 164q0 83 48.5 155.5t126 113.5t160.5 41q104 0 173.5 -67t69.5 -163q0 -125 -103 -218t-232 -93zM282 129q63 0 115.5 52.5t52.5 113.5q0 39 -27 66t-68 27q-65 0 -117 -51.5t-52 -113.5q0 -40 27.5 -67t68.5 -27z" />
    <glyph glyph-name="p" unicode="p" 
d="M443 529q88 0 142.5 -58.5t54.5 -151.5q0 -133 -84 -232t-206 -99q-108 0 -160 89l-52 -249h-170l143 689h170l-12 -60q75 72 174 72zM311 129q67 0 116.5 52t49.5 119q0 39 -25 63.5t-67 24.5q-66 0 -114.5 -53t-48.5 -120q0 -38 24.5 -62t64.5 -24z" />
    <glyph glyph-name="q" unicode="q" 
d="M496 517h170l-143 -689h-170l48 232q-77 -72 -175 -72q-88 0 -142.5 59t-54.5 152q0 131 84 230.5t206 99.5q110 0 161 -90zM285 129q65 0 113.5 53.5t48.5 119.5q0 38 -24.5 62t-63.5 24q-68 0 -117.5 -51.5t-49.5 -119.5q0 -39 25.5 -63.5t67.5 -24.5z" />
    <glyph glyph-name="r" unicode="r" horiz-adv-x="448" 
d="M262 429q71 100 185 100l-18 -141q-79 0 -136.5 -45t-72.5 -117v2l-48 -228h-169l108 517h169z" />
    <glyph glyph-name="s" unicode="s" horiz-adv-x="504" 
d="M210 -12q-140 0 -232 82l83 101q31 -26 74 -40.5t81 -14.5q37 0 59.5 12.5t22.5 32.5t-67 37q-39 10 -57.5 15.5t-45.5 17t-39.5 24t-22 34t-9.5 49.5q0 83 68 137t168 54q108 0 204 -69l-77 -105q-63 48 -128 48q-33 0 -56 -13t-23 -31q0 -10 13.5 -17.5t54.5 -18.5
q45 -12 68 -20t51.5 -24t41 -40.5t12.5 -60.5q0 -85 -69 -137.5t-175 -52.5z" />
    <glyph glyph-name="t" unicode="t" horiz-adv-x="411" 
d="M385 382h-107q-44 -212 -44 -222q0 -31 28 -31q34 0 58 22l18 -118q-56 -45 -131 -45q-63 0 -102 38t-39 98q0 25 50 258h-69l29 135h68l30 142h162l-30 -142h107z" />
    <glyph glyph-name="u" unicode="u" horiz-adv-x="620" 
d="M449 517h169l-108 -517h-169l10 49q-59 -61 -151 -61q-75 0 -119.5 44t-44.5 115q0 7 0.5 12.5t1.5 14.5t2.5 17.5t4.5 25t6.5 32.5t10 45t12 57t15.5 74.5t20 91.5h162q-66 -312 -66 -326q0 -29 16.5 -45.5t45.5 -16.5q43 0 78 29t43 68v-1z" />
    <glyph glyph-name="v" unicode="v" horiz-adv-x="621" 
d="M180 0l-117 517h171l60 -323l193 323h179l-329 -517h-157z" />
    <glyph glyph-name="w" unicode="w" horiz-adv-x="844" 
d="M136 0l-69 517h160l26 -290l151 290h140l27 -290l148 290h168l-284 -517h-151l-20 295l-145 -295h-151z" />
    <glyph glyph-name="x" unicode="x" horiz-adv-x="571" 
d="M610 517l-232 -254l130 -263h-176l-69 139l-127 -139h-181l245 266l-125 251h177l62 -126l116 126h180z" />
    <glyph glyph-name="y" unicode="y" horiz-adv-x="604" 
d="M106 -180q-76 0 -141 40l48 106q37 -23 64 -23q18 0 38.5 8.5t27.5 19.5l23 23l-102 523h171l48 -341l187 341h175l-315 -538q-94 -159 -224 -159z" />
    <glyph glyph-name="z" unicode="z" horiz-adv-x="540" 
d="M-14 0l22 118l298 257h-236l30 142h457l-23 -118l-298 -257h246l-31 -142h-465z" />
    <glyph glyph-name="braceleft" unicode="{" horiz-adv-x="422" 
d="M289 -166q-111 8 -162.5 43.5t-51.5 102.5q0 26 16.5 98t16.5 91q0 27 -17 37t-59 10l9 99q100 0 120 91l21 113q19 89 80.5 129t193.5 50l4 -103q-80 -10 -111 -31.5t-42 -71.5l-23 -121q-10 -44 -33 -69.5t-69 -39.5q58 -21 58 -85q0 -23 -17 -95t-17 -90
q0 -27 21.5 -38t84.5 -20z" />
    <glyph glyph-name="bar" unicode="|" horiz-adv-x="306" 
d="M26 -74l170 817h116l-170 -817h-116z" />
    <glyph glyph-name="braceright" unicode="}" horiz-adv-x="422" 
d="M-32 -166l-4 102q79 10 111 31.5t43 72.5l24 120q9 45 32 70.5t69 39.5q-57 21 -57 85q0 21 16.5 95.5t16.5 89.5q0 27 -21.5 37.5t-84.5 19.5l23 100q111 -8 163 -44t52 -102q0 -25 -17 -99t-17 -90q0 -26 17 -36.5t59 -10.5l-9 -99q-101 0 -119 -90l-22 -114
q-18 -88 -79.5 -128t-195.5 -50z" />
    <glyph glyph-name="asciitilde" unicode="~" horiz-adv-x="456" 
d="M315 292q-36 0 -76 23t-47 23q-40 0 -61 -54l-77 25q22 68 53 99t79 31q35 0 75.5 -23t47.5 -23q38 0 60 53l78 -25q-22 -68 -53.5 -98.5t-78.5 -30.5z" />
    <glyph glyph-name="exclamdown" unicode="&#xa1;" horiz-adv-x="317" 
d="M202 529q41 0 67 -27t26 -67q0 -47 -34.5 -79.5t-80.5 -32.5q-39 0 -64.5 26.5t-25.5 64.5q0 47 34 81t78 34zM220 259l-51 -429h-191l127 429h115z" />
    <glyph glyph-name="cent" unicode="&#xa2;" horiz-adv-x="554" 
d="M398 180l99 -102q-87 -79 -194 -88l-13 -64h-104l15 71q-77 21 -124.5 82t-47.5 140q0 111 83.5 198t197.5 107l14 65h104l-13 -64q93 -19 147 -93l-124 -83q-11 18 -35 28.5t-48 10.5q-64 0 -115 -51.5t-51 -113.5q0 -40 26.5 -67t66.5 -27q63 0 116 51z" />
    <glyph glyph-name="sterling" unicode="&#xa3;" horiz-adv-x="666" 
d="M308 252l-25 -123h329l-27 -129h-594l12 68l106 61l26 123h-71l18 83h70l29 135q22 103 99 166t180 63q73 0 134.5 -34t86.5 -85l-127 -98q-8 29 -31 45.5t-52 16.5q-44 0 -80 -30.5t-45 -73.5l-21 -105h149l-18 -83h-148z" />
    <glyph glyph-name="yen" unicode="&#xa5;" horiz-adv-x="701" 
d="M792 687l-294 -368h114l-17 -83h-163l-13 -58h163l-17 -83h-164l-21 -95h-171l21 95h-161l17 83h162l13 58h-162l17 83h113l-141 368h160l117 -302l233 302h194z" />
    <glyph glyph-name="dieresis" unicode="&#xa8;" horiz-adv-x="501" 
d="M220 579q-33 0 -53 21t-20 53q0 35 25 59t59 24q30 0 50.5 -21.5t20.5 -52.5q0 -34 -25 -58.5t-57 -24.5zM439 579q-33 0 -53.5 21.5t-20.5 52.5q0 35 25.5 59t58.5 24q32 0 52 -21t20 -52q0 -35 -25 -59.5t-57 -24.5z" />
    <glyph glyph-name="macron" unicode="&#xaf;" horiz-adv-x="483" 
d="M129 577l20 96h357l-20 -96h-357z" />
    <glyph glyph-name="acute" unicode="&#xb4;" horiz-adv-x="393" 
d="M129 574l147 160l147 -26l-177 -134h-117z" />
    <glyph glyph-name="cedilla" unicode="&#xb8;" horiz-adv-x="332" 
d="M134 -44q26 -5 41.5 -22t15.5 -41q0 -43 -33.5 -67t-84.5 -24q-57 0 -98 33l33 55q19 -19 49 -19q26 0 42.5 9.5t16.5 24.5q0 18 -17 18q-19 0 -37 -13l-24 27l45 74h85z" />
    <glyph glyph-name="questiondown" unicode="&#xbf;" horiz-adv-x="507" 
d="M295 529q41 0 67 -27t26 -67q0 -47 -34.5 -79.5t-80.5 -32.5q-39 0 -64.5 26.5t-25.5 64.5q0 47 34 81t78 34zM346 267l-32 -157q-61 -2 -114.5 -28.5t-53.5 -62.5q0 -48 68 -48q67 0 128 54l83 -106q-115 -101 -252 -101q-92 0 -146.5 47t-54.5 123q0 82 59.5 144.5
t145.5 82.5l11 52h158z" />
    <glyph glyph-name="Agrave" unicode="&#xc0;" horiz-adv-x="771" 
d="M535 744h-108l-122 134l149 26zM521 0l-20 105h-268l-63 -105h-196l415 687h195l-2 -4l128 -683h-189zM311 234h166l-40 209z" />
    <glyph glyph-name="Aacute" unicode="&#xc1;" horiz-adv-x="771" 
d="M727 878l-177 -134h-117l147 160zM584 687l-2 -4l128 -683h-189l-20 105h-268l-63 -105h-196l415 687h195zM477 234l-40 209l-126 -209h166z" />
    <glyph glyph-name="Acircumflex" unicode="&#xc2;" horiz-adv-x="771" 
d="M521 815l-91 -71h-105l138 151h138l76 -151h-98zM521 0l-20 105h-268l-63 -105h-196l415 687h195l-2 -4l128 -683h-189zM311 234h166l-40 209z" />
    <glyph glyph-name="Atilde" unicode="&#xc3;" horiz-adv-x="771" 
d="M459 788q-40 0 -61 -54l-77 25q22 68 53 99t79 31q35 0 75.5 -23t47.5 -23q38 0 60 53l78 -25q-22 -68 -53.5 -98.5t-78.5 -30.5q-36 0 -76 23t-47 23zM584 687l-2 -4l128 -683h-189l-20 105h-268l-63 -105h-196l415 687h195zM477 234l-40 209l-126 -209h166z" />
    <glyph glyph-name="Adieresis" unicode="&#xc4;" horiz-adv-x="771" 
d="M406 749q-33 0 -53 21t-20 53q0 35 25 59t59 24q30 0 50.5 -21.5t20.5 -52.5q0 -34 -25 -58.5t-57 -24.5zM625 749q-33 0 -53.5 21.5t-20.5 52.5q0 35 25.5 59t58.5 24q32 0 52 -21t20 -52q0 -35 -25 -59.5t-57 -24.5zM521 0l-20 105h-268l-63 -105h-196l415 687h195
l-2 -4l128 -683h-189zM311 234h166l-40 209z" />
    <glyph glyph-name="Aring" unicode="&#xc5;" horiz-adv-x="771" 
d="M504 748q-42 0 -69 26.5t-27 66.5q0 57 45 99.5t100 42.5q42 0 68.5 -26.5t26.5 -66.5q0 -56 -44.5 -99t-99.5 -43zM539 916q-24 0 -43.5 -18t-19.5 -42q0 -18 11.5 -30t30.5 -12q24 0 43 19t19 43q0 17 -11.5 28.5t-29.5 11.5zM521 0l-20 105h-268l-63 -105h-196
l415 687h195l-2 -4l128 -683h-189zM311 234h166l-40 209z" />
    <glyph glyph-name="AE" unicode="&#xc6;" horiz-adv-x="1095" 
d="M1111 534h-370l-20 -107h334l-32 -153h-336l-24 -121h369l-32 -153h-541l22 105h-244l-83 -105h-201l540 687h650zM338 234h170l61 294z" />
    <glyph glyph-name="Ccedilla" unicode="&#xc7;" horiz-adv-x="705" 
d="M652 101q-50 -44 -120 -74t-137 -37l-21 -34q26 -5 41.5 -22t15.5 -41q0 -43 -33.5 -67t-84.5 -24q-57 0 -98 33l33 55q19 -19 49 -19q26 0 42.5 9.5t16.5 24.5q0 18 -17 18q-19 0 -37 -13l-24 27l33 55q-110 18 -184.5 103t-74.5 199q0 105 60.5 199t160.5 150t210 56
q81 0 150.5 -34t111.5 -88l-140 -101q-44 68 -132 68q-97 0 -172.5 -75.5t-75.5 -170.5q0 -68 45 -111.5t105 -43.5q40 0 88 22t81 57z" />
    <glyph glyph-name="Egrave" unicode="&#xc8;" horiz-adv-x="646" 
d="M535 744h-108l-122 134l149 26zM662 534h-370l-20 -107h334l-32 -153h-336l-24 -121h369l-32 -153h-541l143 687h541z" />
    <glyph glyph-name="Eacute" unicode="&#xc9;" horiz-adv-x="646" 
d="M614 878l-177 -134h-117l147 160zM662 534h-370l-20 -107h334l-32 -153h-336l-24 -121h369l-32 -153h-541l143 687h541z" />
    <glyph glyph-name="Ecircumflex" unicode="&#xca;" horiz-adv-x="646" 
d="M454 815l-91 -71h-105l138 151h138l76 -151h-98zM662 534h-370l-20 -107h334l-32 -153h-336l-24 -121h369l-32 -153h-541l143 687h541z" />
    <glyph glyph-name="Edieresis" unicode="&#xcb;" horiz-adv-x="646" 
d="M339 749q-33 0 -53 21t-20 53q0 35 25 59t59 24q30 0 50.5 -21.5t20.5 -52.5q0 -34 -25 -58.5t-57 -24.5zM558 749q-33 0 -53.5 21.5t-20.5 52.5q0 35 25.5 59t58.5 24q32 0 52 -21t20 -52q0 -35 -25 -59.5t-57 -24.5zM662 534h-370l-20 -107h334l-32 -153h-336l-24 -121
h369l-32 -153h-541l143 687h541z" />
    <glyph glyph-name="Igrave" unicode="&#xcc;" horiz-adv-x="304" 
d="M202 744l-122 134l149 26l81 -160h-108zM13 0l143 687h171l-143 -687h-171z" />
    <glyph glyph-name="Iacute" unicode="&#xcd;" horiz-adv-x="304" 
d="M187 744l147 160l147 -26l-177 -134h-117zM13 0l143 687h171l-143 -687h-171z" />
    <glyph glyph-name="Icircumflex" unicode="&#xce;" horiz-adv-x="304" 
d="M75 744l138 151h138l76 -151h-98l-58 71l-91 -71h-105zM13 0l143 687h171l-143 -687h-171z" />
    <glyph glyph-name="Idieresis" unicode="&#xcf;" horiz-adv-x="304" 
d="M156 749q-33 0 -53 21t-20 53q0 35 25 59t59 24q30 0 50.5 -21.5t20.5 -52.5q0 -34 -25 -58.5t-57 -24.5zM375 749q-33 0 -53.5 21.5t-20.5 52.5q0 35 25.5 59t58.5 24q32 0 52 -21t20 -52q0 -35 -25 -59.5t-57 -24.5zM13 0l143 687h171l-143 -687h-171z" />
    <glyph glyph-name="Eth" unicode="&#xd0;" horiz-adv-x="810" 
d="M452 687q150 0 246 -79.5t96 -204.5q0 -164 -140.5 -283.5t-333.5 -119.5h-257l56 269h-76l32 153h76l55 265h246zM367 155q103 0 178 71.5t75 169.5q0 60 -46 98t-118 38h-111l-23 -110h142l-33 -153h-141l-24 -114h101z" />
    <glyph glyph-name="Ntilde" unicode="&#xd1;" horiz-adv-x="775" 
d="M566 742q-36 0 -76 23t-47 23q-40 0 -61 -54l-77 25q22 68 53 99t79 31q35 0 75.5 -23t47.5 -23q38 0 60 53l78 -25q-22 -68 -53.5 -98.5t-78.5 -30.5zM13 0l143 687h169l215 -406l86 406h171l-143 -687h-168l-216 406l-86 -406h-171z" />
    <glyph glyph-name="Ograve" unicode="&#xd2;" horiz-adv-x="813" 
d="M449 744l-122 134l149 26l81 -160h-108zM360 -12q-132 0 -221 87t-89 212q0 108 63 204t164.5 152t210.5 56q134 0 222 -86t88 -212q0 -81 -37.5 -158t-98.5 -132.5t-140.5 -89t-161.5 -33.5zM373 143q97 0 174.5 79.5t77.5 172.5q0 64 -42 106.5t-107 42.5
q-96 0 -174 -79t-78 -172q0 -64 42.5 -107t106.5 -43z" />
    <glyph glyph-name="Oacute" unicode="&#xd3;" horiz-adv-x="813" 
d="M436 744l147 160l147 -26l-177 -134h-117zM360 -12q-132 0 -221 87t-89 212q0 108 63 204t164.5 152t210.5 56q134 0 222 -86t88 -212q0 -81 -37.5 -158t-98.5 -132.5t-140.5 -89t-161.5 -33.5zM373 143q97 0 174.5 79.5t77.5 172.5q0 64 -42 106.5t-107 42.5
q-96 0 -174 -79t-78 -172q0 -64 42.5 -107t106.5 -43z" />
    <glyph glyph-name="Ocircumflex" unicode="&#xd4;" horiz-adv-x="813" 
d="M320 744l138 151h138l76 -151h-98l-58 71l-91 -71h-105zM360 -12q-132 0 -221 87t-89 212q0 108 63 204t164.5 152t210.5 56q134 0 222 -86t88 -212q0 -81 -37.5 -158t-98.5 -132.5t-140.5 -89t-161.5 -33.5zM373 143q97 0 174.5 79.5t77.5 172.5q0 64 -42 106.5
t-107 42.5q-96 0 -174 -79t-78 -172q0 -64 42.5 -107t106.5 -43z" />
    <glyph glyph-name="Otilde" unicode="&#xd5;" horiz-adv-x="813" 
d="M577 742q-36 0 -76 23t-47 23q-40 0 -61 -54l-77 25q22 68 53 99t79 31q35 0 75.5 -23t47.5 -23q38 0 60 53l78 -25q-22 -68 -53.5 -98.5t-78.5 -30.5zM360 -12q-132 0 -221 87t-89 212q0 108 63 204t164.5 152t210.5 56q134 0 222 -86t88 -212q0 -81 -37.5 -158
t-98.5 -132.5t-140.5 -89t-161.5 -33.5zM373 143q97 0 174.5 79.5t77.5 172.5q0 64 -42 106.5t-107 42.5q-96 0 -174 -79t-78 -172q0 -64 42.5 -107t106.5 -43z" />
    <glyph glyph-name="Odieresis" unicode="&#xd6;" horiz-adv-x="813" 
d="M401 749q-33 0 -53 21t-20 53q0 35 25 59t59 24q30 0 50.5 -21.5t20.5 -52.5q0 -34 -25 -58.5t-57 -24.5zM620 749q-33 0 -53.5 21.5t-20.5 52.5q0 35 25.5 59t58.5 24q32 0 52 -21t20 -52q0 -35 -25 -59.5t-57 -24.5zM360 -12q-132 0 -221 87t-89 212q0 108 63 204
t164.5 152t210.5 56q134 0 222 -86t88 -212q0 -81 -37.5 -158t-98.5 -132.5t-140.5 -89t-161.5 -33.5zM373 143q97 0 174.5 79.5t77.5 172.5q0 64 -42 106.5t-107 42.5q-96 0 -174 -79t-78 -172q0 -64 42.5 -107t106.5 -43z" />
    <glyph glyph-name="multiply" unicode="&#xd7;" horiz-adv-x="567" 
d="M547 460l-149 -125l100 -124l-118 -101l-101 125l-147 -123l-80 96l149 125l-100 124l118 101l101 -126l147 123z" />
    <glyph glyph-name="Oslash" unicode="&#xd8;" horiz-adv-x="813" 
d="M862 687l-118 -113q54 -76 54 -173q0 -81 -37.5 -158t-98.5 -132.5t-140.5 -89t-161.5 -33.5q-99 0 -177 51l-41 -39h-149l115 110q-58 77 -58 177q0 108 63 204t164.5 152t210.5 56q105 0 181 -53l43 41h150zM224 293q0 -33 12 -61l310 296q-34 16 -70 16
q-96 0 -174 -79t-78 -172zM625 395q0 32 -10 56l-308 -294q31 -14 66 -14q97 0 174.5 79.5t77.5 172.5z" />
    <glyph glyph-name="Ugrave" unicode="&#xd9;" horiz-adv-x="758" 
d="M471 744l-122 134l149 26l81 -160h-108zM332 -12q-143 0 -217 90.5t-45 229.5l79 379h170l-80 -385q-14 -72 15 -115.5t91 -43.5q68 0 123.5 50t70.5 123l77 371h171l-82 -393q-28 -137 -131.5 -221.5t-241.5 -84.5z" />
    <glyph glyph-name="Uacute" unicode="&#xda;" horiz-adv-x="758" 
d="M364 744l147 160l147 -26l-177 -134h-117zM332 -12q-143 0 -217 90.5t-45 229.5l79 379h170l-80 -385q-14 -72 15 -115.5t91 -43.5q68 0 123.5 50t70.5 123l77 371h171l-82 -393q-28 -137 -131.5 -221.5t-241.5 -84.5z" />
    <glyph glyph-name="Ucircumflex" unicode="&#xdb;" horiz-adv-x="758" 
d="M302 744l138 151h138l76 -151h-98l-58 71l-91 -71h-105zM332 -12q-143 0 -217 90.5t-45 229.5l79 379h170l-80 -385q-14 -72 15 -115.5t91 -43.5q68 0 123.5 50t70.5 123l77 371h171l-82 -393q-28 -137 -131.5 -221.5t-241.5 -84.5z" />
    <glyph glyph-name="Udieresis" unicode="&#xdc;" horiz-adv-x="758" 
d="M383 749q-33 0 -53 21t-20 53q0 35 25 59t59 24q30 0 50.5 -21.5t20.5 -52.5q0 -34 -25 -58.5t-57 -24.5zM602 749q-33 0 -53.5 21.5t-20.5 52.5q0 35 25.5 59t58.5 24q32 0 52 -21t20 -52q0 -35 -25 -59.5t-57 -24.5zM332 -12q-143 0 -217 90.5t-45 229.5l79 379h170
l-80 -385q-14 -72 15 -115.5t91 -43.5q68 0 123.5 50t70.5 123l77 371h171l-82 -393q-28 -137 -131.5 -221.5t-241.5 -84.5z" />
    <glyph glyph-name="Yacute" unicode="&#xdd;" horiz-adv-x="701" 
d="M319 744l147 160l147 -26l-177 -134h-117zM209 0l52 237l-173 450h160l117 -302l233 302h194l-360 -450l-52 -237h-171z" />
    <glyph glyph-name="Thorn" unicode="&#xde;" horiz-adv-x="666" 
d="M10 0l143 687h167l-22 -106h147q99 0 159.5 -54t60.5 -142q0 -119 -89.5 -197.5t-217.5 -78.5h-154l-23 -109h-171zM236 265h127q50 0 88.5 32.5t38.5 73.5q0 55 -82 55h-138z" />
    <glyph glyph-name="germandbls" unicode="&#xdf;" horiz-adv-x="626" 
d="M4 0l109 523q19 89 97.5 143.5t187.5 54.5q102 0 163 -48.5t61 -127.5q0 -62 -34.5 -111.5t-96.5 -77.5q43 -21 68 -59.5t25 -85.5q0 -95 -78.5 -153t-188.5 -58h-73l30 145h32q40 0 73 25.5t37 61.5q3 24 -15.5 37.5t-54.5 13.5h-43l28 132h6q39 0 72 28.5t33 60.5
q0 42 -61 42q-40 0 -71.5 -23t-38.5 -57l-97 -466h-170z" />
    <glyph glyph-name="agrave" unicode="&#xe0;" 
d="M488 574h-108l-122 134l149 26zM496 517h169l-108 -517h-169l12 60q-75 -72 -174 -72q-88 0 -142.5 59t-54.5 152q0 131 84 230.5t206 99.5q110 0 161 -90zM285 129q65 0 113.5 53.5t48.5 119.5q0 38 -24.5 62t-63.5 24q-68 0 -117.5 -51.5t-49.5 -119.5
q0 -39 25.5 -63.5t67.5 -24.5z" />
    <glyph glyph-name="aacute" unicode="&#xe1;" 
d="M567 708l-177 -134h-117l147 160zM496 517h169l-108 -517h-169l12 60q-75 -72 -174 -72q-88 0 -142.5 59t-54.5 152q0 131 84 230.5t206 99.5q110 0 161 -90zM285 129q65 0 113.5 53.5t48.5 119.5q0 38 -24.5 62t-63.5 24q-68 0 -117.5 -51.5t-49.5 -119.5
q0 -39 25.5 -63.5t67.5 -24.5z" />
    <glyph glyph-name="acircumflex" unicode="&#xe2;" 
d="M407 645l-91 -71h-105l138 151h138l76 -151h-98zM496 517h169l-108 -517h-169l12 60q-75 -72 -174 -72q-88 0 -142.5 59t-54.5 152q0 131 84 230.5t206 99.5q110 0 161 -90zM285 129q65 0 113.5 53.5t48.5 119.5q0 38 -24.5 62t-63.5 24q-68 0 -117.5 -51.5t-49.5 -119.5
q0 -39 25.5 -63.5t67.5 -24.5z" />
    <glyph glyph-name="atilde" unicode="&#xe3;" 
d="M345 618q-40 0 -61 -54l-77 25q22 68 53 99t79 31q35 0 75.5 -23t47.5 -23q38 0 60 53l78 -25q-22 -68 -53.5 -98.5t-78.5 -30.5q-36 0 -76 23t-47 23zM496 517h169l-108 -517h-169l12 60q-75 -72 -174 -72q-88 0 -142.5 59t-54.5 152q0 131 84 230.5t206 99.5
q110 0 161 -90zM285 129q65 0 113.5 53.5t48.5 119.5q0 38 -24.5 62t-63.5 24q-68 0 -117.5 -51.5t-49.5 -119.5q0 -39 25.5 -63.5t67.5 -24.5z" />
    <glyph glyph-name="adieresis" unicode="&#xe4;" 
d="M292 579q-33 0 -53 21t-20 53q0 35 25 59t59 24q30 0 50.5 -21.5t20.5 -52.5q0 -34 -25 -58.5t-57 -24.5zM511 579q-33 0 -53.5 21.5t-20.5 52.5q0 35 25.5 59t58.5 24q32 0 52 -21t20 -52q0 -35 -25 -59.5t-57 -24.5zM496 517h169l-108 -517h-169l12 60
q-75 -72 -174 -72q-88 0 -142.5 59t-54.5 152q0 131 84 230.5t206 99.5q110 0 161 -90zM285 129q65 0 113.5 53.5t48.5 119.5q0 38 -24.5 62t-63.5 24q-68 0 -117.5 -51.5t-49.5 -119.5q0 -39 25.5 -63.5t67.5 -24.5z" />
    <glyph glyph-name="aring" unicode="&#xe5;" 
d="M390 578q-42 0 -69 26.5t-27 66.5q0 57 45 99.5t100 42.5q42 0 68.5 -26.5t26.5 -66.5q0 -56 -44.5 -99t-99.5 -43zM425 746q-24 0 -43.5 -18t-19.5 -42q0 -18 11.5 -30t30.5 -12q24 0 43 19t19 43q0 17 -11.5 28.5t-29.5 11.5zM496 517h169l-108 -517h-169l12 60
q-75 -72 -174 -72q-88 0 -142.5 59t-54.5 152q0 131 84 230.5t206 99.5q110 0 161 -90zM285 129q65 0 113.5 53.5t48.5 119.5q0 38 -24.5 62t-63.5 24q-68 0 -117.5 -51.5t-49.5 -119.5q0 -39 25.5 -63.5t67.5 -24.5z" />
    <glyph glyph-name="ae" unicode="&#xe6;" horiz-adv-x="892" 
d="M629 212h-114v-2q0 -85 84 -85q70 0 136 49l86 -110q-41 -35 -101.5 -55.5t-120.5 -20.5q-121 0 -186 78q-76 -78 -207 -78q-103 0 -158 50t-39 128q15 70 84 114.5t158 44.5q61 0 124 -29l4 18q8 38 -12.5 59t-71.5 21q-66 0 -140 -36l-43 115q123 56 215 56
q110 0 159 -70q86 70 199 70q87 0 142.5 -39.5t55.5 -101.5q0 -86 -67 -133t-187 -43zM679 393q-85 0 -134 -78h104q40 0 62.5 12t22.5 33q0 14 -15.5 23.5t-39.5 9.5zM223 100q49 0 85.5 22.5t42.5 55.5l6 27q-35 14 -83 14q-37 0 -67.5 -21.5t-37.5 -53.5q-4 -20 10.5 -32
t43.5 -12z" />
    <glyph glyph-name="ccedilla" unicode="&#xe7;" horiz-adv-x="554" 
d="M497 78q-88 -80 -198 -89l-20 -33q26 -5 41.5 -22t15.5 -41q0 -43 -33.5 -67t-84.5 -24q-57 0 -98 33l33 55q19 -19 49 -19q26 0 42.5 9.5t16.5 24.5q0 18 -17 18q-19 0 -37 -13l-24 27l34 56q-83 17 -135.5 80t-52.5 146q0 125 103.5 217.5t232.5 92.5q126 0 197 -97
l-124 -83q-11 18 -35 28.5t-48 10.5q-64 0 -115 -51.5t-51 -113.5q0 -40 26.5 -67t66.5 -27q63 0 116 51z" />
    <glyph glyph-name="egrave" unicode="&#xe8;" horiz-adv-x="562" 
d="M459 574h-108l-122 134l149 26zM291 212h-114v-2q0 -85 84 -85q70 0 136 49l86 -110q-41 -35 -101.5 -55.5t-120.5 -20.5q-106 0 -169.5 60.5t-63.5 159.5q0 133 93.5 227t225.5 94q87 0 142.5 -39.5t55.5 -101.5q0 -86 -67 -133t-187 -43zM341 393q-85 0 -134 -78h104
q40 0 62.5 12t22.5 33q0 14 -15.5 23.5t-39.5 9.5z" />
    <glyph glyph-name="eacute" unicode="&#xe9;" horiz-adv-x="562" 
d="M538 708l-177 -134h-117l147 160zM291 212h-114v-2q0 -85 84 -85q70 0 136 49l86 -110q-41 -35 -101.5 -55.5t-120.5 -20.5q-106 0 -169.5 60.5t-63.5 159.5q0 133 93.5 227t225.5 94q87 0 142.5 -39.5t55.5 -101.5q0 -86 -67 -133t-187 -43zM341 393q-85 0 -134 -78h104
q40 0 62.5 12t22.5 33q0 14 -15.5 23.5t-39.5 9.5z" />
    <glyph glyph-name="ecircumflex" unicode="&#xea;" horiz-adv-x="562" 
d="M378 645l-91 -71h-105l138 151h138l76 -151h-98zM291 212h-114v-2q0 -85 84 -85q70 0 136 49l86 -110q-41 -35 -101.5 -55.5t-120.5 -20.5q-106 0 -169.5 60.5t-63.5 159.5q0 133 93.5 227t225.5 94q87 0 142.5 -39.5t55.5 -101.5q0 -86 -67 -133t-187 -43zM341 393
q-85 0 -134 -78h104q40 0 62.5 12t22.5 33q0 14 -15.5 23.5t-39.5 9.5z" />
    <glyph glyph-name="edieresis" unicode="&#xeb;" horiz-adv-x="562" 
d="M263 579q-33 0 -53 21t-20 53q0 35 25 59t59 24q30 0 50.5 -21.5t20.5 -52.5q0 -34 -25 -58.5t-57 -24.5zM482 579q-33 0 -53.5 21.5t-20.5 52.5q0 35 25.5 59t58.5 24q32 0 52 -21t20 -52q0 -35 -25 -59.5t-57 -24.5zM347 529q87 0 142.5 -39.5t55.5 -101.5
q0 -86 -67 -133t-187 -43h-114v-2q0 -85 84 -85q70 0 136 49l86 -110q-41 -35 -101.5 -55.5t-120.5 -20.5q-106 0 -169.5 60.5t-63.5 159.5q0 133 93.5 227t225.5 94zM311 315q40 0 62.5 12t22.5 33q0 14 -15.5 23.5t-39.5 9.5q-85 0 -134 -78h104z" />
    <glyph glyph-name="igrave" unicode="&#xec;" horiz-adv-x="288" 
d="M156 574l-122 134l149 26l81 -160h-108zM5 0l108 517h169l-108 -517h-169z" />
    <glyph glyph-name="iacute" unicode="&#xed;" horiz-adv-x="288" 
d="M149 574l147 160l147 -26l-177 -134h-117zM5 0l108 517h169l-108 -517h-169z" />
    <glyph glyph-name="icircumflex" unicode="&#xee;" horiz-adv-x="288" 
d="M32 574l138 151h138l76 -151h-98l-58 71l-91 -71h-105zM5 0l108 517h169l-108 -517h-169z" />
    <glyph glyph-name="idieresis" unicode="&#xef;" horiz-adv-x="288" 
d="M113 579q-33 0 -53 21t-20 53q0 35 25 59t59 24q30 0 50.5 -21.5t20.5 -52.5q0 -34 -25 -58.5t-57 -24.5zM332 579q-33 0 -53.5 21.5t-20.5 52.5q0 35 25.5 59t58.5 24q32 0 52 -21t20 -52q0 -35 -25 -59.5t-57 -24.5zM5 0l108 517h169l-108 -517h-169z" />
    <glyph glyph-name="eth" unicode="&#xf0;" horiz-adv-x="634" 
d="M495 614q113 -130 113 -259q0 -151 -96 -259t-239 -108q-108 0 -173 59t-65 155q0 116 77 203.5t189 87.5q84 0 143 -68q-16 67 -81 135l-111 -46l-21 83l62 26q-42 33 -60 46l153 55l47 -44l99 41l22 -83zM282 130q62 0 108 46t46 104q0 35 -23 56t-64 21
q-62 0 -108 -46t-46 -104q0 -35 23.5 -56t63.5 -21z" />
    <glyph glyph-name="ntilde" unicode="&#xf1;" horiz-adv-x="620" 
d="M342 618q-40 0 -61 -54l-77 25q22 68 53 99t79 31q35 0 75.5 -23t47.5 -23q38 0 60 53l78 -25q-22 -68 -53.5 -98.5t-78.5 -30.5q-36 0 -76 23t-47 23zM420 529q75 0 119.5 -44t44.5 -115q0 -7 -0.5 -12.5t-1.5 -14.5t-2.5 -17.5t-4.5 -25t-6.5 -32.5t-10 -45t-12 -57
t-15.5 -74.5t-20 -91.5h-162q66 312 66 326q0 29 -16.5 45.5t-45.5 16.5q-43 0 -78 -29t-43 -68v1l-61 -292h-169l108 517h169l-10 -49q59 61 151 61z" />
    <glyph glyph-name="ograve" unicode="&#xf2;" horiz-adv-x="635" 
d="M367 574l-122 134l149 26l81 -160h-108zM272 -12q-104 0 -173.5 67t-69.5 164q0 83 48.5 155.5t126 113.5t160.5 41q104 0 173.5 -67t69.5 -163q0 -125 -103 -218t-232 -93zM282 129q63 0 115.5 52.5t52.5 113.5q0 39 -27 66t-68 27q-65 0 -117 -51.5t-52 -113.5
q0 -40 27.5 -67t68.5 -27z" />
    <glyph glyph-name="oacute" unicode="&#xf3;" horiz-adv-x="635" 
d="M260 574l147 160l147 -26l-177 -134h-117zM272 -12q-104 0 -173.5 67t-69.5 164q0 83 48.5 155.5t126 113.5t160.5 41q104 0 173.5 -67t69.5 -163q0 -125 -103 -218t-232 -93zM282 129q63 0 115.5 52.5t52.5 113.5q0 39 -27 66t-68 27q-65 0 -117 -51.5t-52 -113.5
q0 -40 27.5 -67t68.5 -27z" />
    <glyph glyph-name="ocircumflex" unicode="&#xf4;" horiz-adv-x="635" 
d="M198 574l138 151h138l76 -151h-98l-58 71l-91 -71h-105zM272 -12q-104 0 -173.5 67t-69.5 164q0 83 48.5 155.5t126 113.5t160.5 41q104 0 173.5 -67t69.5 -163q0 -125 -103 -218t-232 -93zM282 129q63 0 115.5 52.5t52.5 113.5q0 39 -27 66t-68 27q-65 0 -117 -51.5
t-52 -113.5q0 -40 27.5 -67t68.5 -27z" />
    <glyph glyph-name="otilde" unicode="&#xf5;" horiz-adv-x="635" 
d="M455 572q-36 0 -76 23t-47 23q-40 0 -61 -54l-77 25q22 68 53 99t79 31q35 0 75.5 -23t47.5 -23q38 0 60 53l78 -25q-22 -68 -53.5 -98.5t-78.5 -30.5zM272 -12q-104 0 -173.5 67t-69.5 164q0 83 48.5 155.5t126 113.5t160.5 41q104 0 173.5 -67t69.5 -163
q0 -125 -103 -218t-232 -93zM282 129q63 0 115.5 52.5t52.5 113.5q0 39 -27 66t-68 27q-65 0 -117 -51.5t-52 -113.5q0 -40 27.5 -67t68.5 -27z" />
    <glyph glyph-name="odieresis" unicode="&#xf6;" horiz-adv-x="635" 
d="M279 579q-33 0 -53 21t-20 53q0 35 25 59t59 24q30 0 50.5 -21.5t20.5 -52.5q0 -34 -25 -58.5t-57 -24.5zM498 579q-33 0 -53.5 21.5t-20.5 52.5q0 35 25.5 59t58.5 24q32 0 52 -21t20 -52q0 -35 -25 -59.5t-57 -24.5zM272 -12q-104 0 -173.5 67t-69.5 164
q0 83 48.5 155.5t126 113.5t160.5 41q104 0 173.5 -67t69.5 -163q0 -125 -103 -218t-232 -93zM282 129q63 0 115.5 52.5t52.5 113.5q0 39 -27 66t-68 27q-65 0 -117 -51.5t-52 -113.5q0 -40 27.5 -67t68.5 -27z" />
    <glyph glyph-name="divide" unicode="&#xf7;" horiz-adv-x="606" 
d="M354 442q-36 0 -59.5 23.5t-23.5 59.5q0 41 29.5 68t68.5 27q35 0 57 -23.5t22 -57.5q0 -39 -28.5 -68t-65.5 -29zM59 267l28 134h491l-28 -134h-491zM272 48q-36 0 -59 23.5t-23 58.5q0 42 29 69t68 27q34 0 57 -23.5t23 -57.5q0 -39 -29 -68t-66 -29z" />
    <glyph glyph-name="oslash" unicode="&#xf8;" horiz-adv-x="635" 
d="M654 517l-91 -84q44 -60 44 -134q0 -125 -103 -218t-232 -93q-80 0 -141 41l-32 -29h-118l91 85q-43 61 -43 134q0 83 48.5 155.5t126 113.5t160.5 41q79 0 141 -41l32 29h117zM186 223q0 -17 4 -28l201 186q-15 7 -36 7q-65 0 -117 -51.5t-52 -113.5zM450 295
q0 16 -4 28l-201 -187q15 -7 37 -7q63 0 115.5 52.5t52.5 113.5z" />
    <glyph glyph-name="ugrave" unicode="&#xf9;" horiz-adv-x="620" 
d="M472 574h-108l-122 134l149 26zM449 517h169l-108 -517h-169l10 49q-59 -61 -151 -61q-75 0 -119.5 44t-44.5 115q0 7 0.5 12.5t1.5 14.5t2.5 17.5t4.5 25t6.5 32.5t10 45t12 57t15.5 74.5t20 91.5h162q-66 -312 -66 -326q0 -29 16.5 -45.5t45.5 -16.5q43 0 78 29t43 68
v-1z" />
    <glyph glyph-name="uacute" unicode="&#xfa;" horiz-adv-x="620" 
d="M551 708l-177 -134h-117l147 160zM449 517h169l-108 -517h-169l10 49q-59 -61 -151 -61q-75 0 -119.5 44t-44.5 115q0 7 0.5 12.5t1.5 14.5t2.5 17.5t4.5 25t6.5 32.5t10 45t12 57t15.5 74.5t20 91.5h162q-66 -312 -66 -326q0 -29 16.5 -45.5t45.5 -16.5q43 0 78 29
t43 68v-1z" />
    <glyph glyph-name="ucircumflex" unicode="&#xfb;" horiz-adv-x="620" 
d="M391 645l-91 -71h-105l138 151h138l76 -151h-98zM449 517h169l-108 -517h-169l10 49q-59 -61 -151 -61q-75 0 -119.5 44t-44.5 115q0 7 0.5 12.5t1.5 14.5t2.5 17.5t4.5 25t6.5 32.5t10 45t12 57t15.5 74.5t20 91.5h162q-66 -312 -66 -326q0 -29 16.5 -45.5t45.5 -16.5
q43 0 78 29t43 68v-1z" />
    <glyph glyph-name="udieresis" unicode="&#xfc;" horiz-adv-x="620" 
d="M276 579q-33 0 -53 21t-20 53q0 35 25 59t59 24q30 0 50.5 -21.5t20.5 -52.5q0 -34 -25 -58.5t-57 -24.5zM495 579q-33 0 -53.5 21.5t-20.5 52.5q0 35 25.5 59t58.5 24q32 0 52 -21t20 -52q0 -35 -25 -59.5t-57 -24.5zM449 517h169l-108 -517h-169l10 49
q-59 -61 -151 -61q-75 0 -119.5 44t-44.5 115q0 7 0.5 12.5t1.5 14.5t2.5 17.5t4.5 25t6.5 32.5t10 45t12 57t15.5 74.5t20 91.5h162q-66 -312 -66 -326q0 -29 16.5 -45.5t45.5 -16.5q43 0 78 29t43 68v-1z" />
    <glyph glyph-name="yacute" unicode="&#xfd;" horiz-adv-x="604" 
d="M252 574l147 160l147 -26l-177 -134h-117zM106 -180q-76 0 -141 40l48 106q37 -23 64 -23q18 0 38.5 8.5t27.5 19.5l23 23l-102 523h171l48 -341l187 341h175l-315 -538q-94 -159 -224 -159z" />
    <glyph glyph-name="thorn" unicode="&#xfe;" 
d="M443 529q88 0 142.5 -58.5t54.5 -151.5q0 -133 -84 -232t-206 -99q-108 0 -160 89l-52 -249h-170l181 871h170l-50 -242q75 72 174 72zM311 129q67 0 116.5 52t49.5 119q0 39 -25 63.5t-67 24.5q-66 0 -114.5 -53t-48.5 -120q0 -38 24.5 -62t64.5 -24z" />
    <glyph glyph-name="ydieresis" unicode="&#xff;" horiz-adv-x="604" 
d="M271 579q-33 0 -53 21t-20 53q0 35 25 59t59 24q30 0 50.5 -21.5t20.5 -52.5q0 -34 -25 -58.5t-57 -24.5zM490 579q-33 0 -53.5 21.5t-20.5 52.5q0 35 25.5 59t58.5 24q32 0 52 -21t20 -52q0 -35 -25 -59.5t-57 -24.5zM106 -180q-76 0 -141 40l48 106q37 -23 64 -23
q18 0 38.5 8.5t27.5 19.5l23 23l-102 523h171l48 -341l187 341h175l-315 -538q-94 -159 -224 -159z" />
    <glyph glyph-name="Amacron" unicode="&#x100;" horiz-adv-x="771" 
d="M702 843l-20 -96h-357l20 96h357zM521 0l-20 105h-268l-63 -105h-196l415 687h195l-2 -4l128 -683h-189zM311 234h166l-40 209z" />
    <glyph glyph-name="amacron" unicode="&#x101;" 
d="M588 673l-20 -96h-357l20 96h357zM496 517h169l-108 -517h-169l12 60q-75 -72 -174 -72q-88 0 -142.5 59t-54.5 152q0 131 84 230.5t206 99.5q110 0 161 -90zM285 129q65 0 113.5 53.5t48.5 119.5q0 38 -24.5 62t-63.5 24q-68 0 -117.5 -51.5t-49.5 -119.5
q0 -39 25.5 -63.5t67.5 -24.5z" />
    <glyph glyph-name="Abreve" unicode="&#x102;" horiz-adv-x="771" 
d="M505 748q-97 0 -152 69l82 68q35 -43 88 -43q55 0 107 44l55 -70q-83 -68 -180 -68zM521 0l-20 105h-268l-63 -105h-196l415 687h195l-2 -4l128 -683h-189zM311 234h166l-40 209z" />
    <glyph glyph-name="abreve" unicode="&#x103;" 
d="M391 578q-97 0 -152 69l82 68q35 -43 88 -43q55 0 107 44l55 -70q-83 -68 -180 -68zM496 517h169l-108 -517h-169l12 60q-75 -72 -174 -72q-88 0 -142.5 59t-54.5 152q0 131 84 230.5t206 99.5q110 0 161 -90zM285 129q65 0 113.5 53.5t48.5 119.5q0 38 -24.5 62
t-63.5 24q-68 0 -117.5 -51.5t-49.5 -119.5q0 -39 25.5 -63.5t67.5 -24.5z" />
    <glyph glyph-name="Aogonek" unicode="&#x104;" horiz-adv-x="771" 
d="M727 -59l16 -85q-40 -29 -90 -29q-46 0 -73 26t-27 71q0 42 25 76h-57l-20 105h-268l-63 -105h-196l415 687h195l-2 -4l127 -680l8 -3q-25 0 -42.5 -15t-17.5 -36q0 -25 24 -25q29 0 46 17zM311 234h166l-40 209z" />
    <glyph glyph-name="aogonek" unicode="&#x105;" 
d="M528 -76q29 0 46 17l16 -85q-40 -29 -90 -29q-46 0 -73 26t-27 71q0 42 25 76h-37l12 60q-75 -72 -174 -72q-88 0 -142.5 59t-54.5 152q0 131 84 230.5t206 99.5q110 0 161 -90l16 78h169l-107 -514l6 -3q-25 0 -42.5 -15t-17.5 -36q0 -25 24 -25zM285 129
q65 0 113.5 53.5t48.5 119.5q0 38 -24.5 62t-63.5 24q-68 0 -117.5 -51.5t-49.5 -119.5q0 -39 25.5 -63.5t67.5 -24.5z" />
    <glyph glyph-name="Cacute" unicode="&#x106;" horiz-adv-x="705" 
d="M355 744l147 160l147 -26l-177 -134h-117zM360 -12q-126 0 -217 89.5t-91 216.5q0 105 60.5 199t160.5 150t210 56q81 0 150.5 -34t111.5 -88l-140 -101q-44 68 -132 68q-97 0 -172.5 -75.5t-75.5 -170.5q0 -68 45 -111.5t105 -43.5q40 0 88 22t81 57l108 -121
q-57 -50 -138.5 -81.5t-153.5 -31.5z" />
    <glyph glyph-name="cacute" unicode="&#x107;" horiz-adv-x="554" 
d="M247 574l147 160l147 -26l-177 -134h-117zM270 -12q-103 0 -172 67t-69 164q0 125 103.5 217.5t232.5 92.5q126 0 197 -97l-124 -83q-11 18 -35 28.5t-48 10.5q-64 0 -115 -51.5t-51 -113.5q0 -40 26.5 -67t66.5 -27q63 0 116 51l99 -102q-98 -90 -227 -90z" />
    <glyph glyph-name="Ccaron" unicode="&#x10c;" horiz-adv-x="705" 
d="M404 744l-75 151h98l57 -71l92 71h105l-139 -151h-138zM360 -12q-126 0 -217 89.5t-91 216.5q0 105 60.5 199t160.5 150t210 56q81 0 150.5 -34t111.5 -88l-140 -101q-44 68 -132 68q-97 0 -172.5 -75.5t-75.5 -170.5q0 -68 45 -111.5t105 -43.5q40 0 88 22t81 57
l108 -121q-57 -50 -138.5 -81.5t-153.5 -31.5z" />
    <glyph glyph-name="ccaron" unicode="&#x10d;" horiz-adv-x="554" 
d="M296 574l-75 151h98l57 -71l92 71h105l-139 -151h-138zM270 -12q-103 0 -172 67t-69 164q0 125 103.5 217.5t232.5 92.5q126 0 197 -97l-124 -83q-11 18 -35 28.5t-48 10.5q-64 0 -115 -51.5t-51 -113.5q0 -40 26.5 -67t66.5 -27q63 0 116 51l99 -102q-98 -90 -227 -90z
" />
    <glyph glyph-name="Dcaron" unicode="&#x10e;" horiz-adv-x="761" 
d="M347 744l-75 151h98l57 -71l92 71h105l-139 -151h-138zM13 0l143 687h246q150 0 246 -79.5t96 -204.5q0 -164 -140.5 -283.5t-333.5 -119.5h-257zM216 155h101q103 0 178 71.5t75 169.5q0 60 -46 98t-118 38h-111z" />
    <glyph glyph-name="dcaron" unicode="&#x10f;" horiz-adv-x="668" 
d="M479 440l54 259h170l-145 -699h-170l12 59q-76 -71 -174 -71q-88 0 -142.5 59t-54.5 152q0 131 84 230.5t206 99.5q108 0 160 -89zM830 699q33 0 52 -23.5t19 -61.5q0 -92 -117 -180l-44 42q43 30 71 74q-31 -1 -46 17.5t-15 48.5q0 34 24 58.5t56 24.5zM285 129
q65 0 113.5 53.5t48.5 119.5q0 38 -24.5 62t-63.5 24q-68 0 -117.5 -51.5t-49.5 -119.5q0 -39 25.5 -63.5t67.5 -24.5z" />
    <glyph glyph-name="Dcroat" unicode="&#x110;" horiz-adv-x="810" 
d="M452 687q150 0 246 -79.5t96 -204.5q0 -164 -140.5 -283.5t-333.5 -119.5h-257l56 269h-76l32 153h76l55 265h246zM367 155q103 0 178 71.5t75 169.5q0 60 -46 98t-118 38h-111l-23 -110h142l-33 -153h-141l-24 -114h101z" />
    <glyph glyph-name="dcroat" unicode="&#x111;" horiz-adv-x="696" 
d="M750 651l-17 -82h-57l-118 -569h-170l12 59q-76 -71 -174 -71q-88 0 -142.5 59t-54.5 152q0 131 84 230.5t206 99.5q108 0 160 -89l27 129h-147l17 82h147l10 48h170l-10 -48h57zM285 129q65 0 113.5 53.5t48.5 119.5q0 38 -24.5 62t-63.5 24q-68 0 -117.5 -51.5
t-49.5 -119.5q0 -39 25.5 -63.5t67.5 -24.5z" />
    <glyph glyph-name="Emacron" unicode="&#x112;" horiz-adv-x="646" 
d="M635 843l-20 -96h-357l20 96h357zM662 534h-370l-20 -107h334l-32 -153h-336l-24 -121h369l-32 -153h-541l143 687h541z" />
    <glyph glyph-name="emacron" unicode="&#x113;" horiz-adv-x="562" 
d="M559 673l-20 -96h-357l20 96h357zM347 529q87 0 142.5 -39.5t55.5 -101.5q0 -86 -67 -133t-187 -43h-114v-2q0 -85 84 -85q70 0 136 49l86 -110q-41 -35 -101.5 -55.5t-120.5 -20.5q-106 0 -169.5 60.5t-63.5 159.5q0 133 93.5 227t225.5 94zM311 315q40 0 62.5 12
t22.5 33q0 14 -15.5 23.5t-39.5 9.5q-85 0 -134 -78h104z" />
    <glyph glyph-name="Edotaccent" unicode="&#x116;" horiz-adv-x="646" 
d="M448 749q-33 0 -53 21t-20 53q0 35 25 59t59 24q30 0 50.5 -21.5t20.5 -52.5q0 -34 -25 -58.5t-57 -24.5zM662 534h-370l-20 -107h334l-32 -153h-336l-24 -121h369l-32 -153h-541l143 687h541z" />
    <glyph glyph-name="edotaccent" unicode="&#x117;" horiz-adv-x="562" 
d="M372 579q-33 0 -53 21t-20 53q0 35 25 59t59 24q30 0 50.5 -21.5t20.5 -52.5q0 -34 -25 -58.5t-57 -24.5zM291 212h-114v-2q0 -85 84 -85q70 0 136 49l86 -110q-41 -35 -101.5 -55.5t-120.5 -20.5q-106 0 -169.5 60.5t-63.5 159.5q0 133 93.5 227t225.5 94
q87 0 142.5 -39.5t55.5 -101.5q0 -86 -67 -133t-187 -43zM341 393q-85 0 -134 -78h104q40 0 62.5 12t22.5 33q0 14 -15.5 23.5t-39.5 9.5z" />
    <glyph glyph-name="Eogonek" unicode="&#x118;" horiz-adv-x="646" 
d="M662 534h-370l-20 -107h334l-32 -153h-336l-24 -121h369l-32 -153h-214q-25 0 -42.5 -15t-17.5 -36q0 -25 24 -25q29 0 46 17l16 -85q-40 -29 -90 -29q-46 0 -73 26t-27 71q0 42 25 76h-188l143 687h541z" />
    <glyph glyph-name="eogonek" unicode="&#x119;" horiz-adv-x="562" 
d="M291 212h-114v-2q0 -85 84 -85q70 0 136 49l86 -110q-39 -34 -97.5 -54t-117.5 -22q-25 0 -42.5 -15t-17.5 -36q0 -25 24 -25q29 0 46 17l16 -85q-40 -29 -90 -29q-46 0 -73 26t-27 71q0 59 45 98q-57 26 -89 77.5t-32 120.5q0 133 93.5 227t225.5 94q87 0 142.5 -39.5
t55.5 -101.5q0 -86 -67 -133t-187 -43zM341 393q-85 0 -134 -78h104q40 0 62.5 12t22.5 33q0 14 -15.5 23.5t-39.5 9.5z" />
    <glyph glyph-name="Ecaron" unicode="&#x11a;" horiz-adv-x="646" 
d="M507 744h-138l-75 151h98l57 -71l92 71h105zM662 534h-370l-20 -107h334l-32 -153h-336l-24 -121h369l-32 -153h-541l143 687h541z" />
    <glyph glyph-name="ecaron" unicode="&#x11b;" horiz-adv-x="562" 
d="M431 574h-138l-75 151h98l57 -71l92 71h105zM347 529q87 0 142.5 -39.5t55.5 -101.5q0 -86 -67 -133t-187 -43h-114v-2q0 -85 84 -85q70 0 136 49l86 -110q-41 -35 -101.5 -55.5t-120.5 -20.5q-106 0 -169.5 60.5t-63.5 159.5q0 133 93.5 227t225.5 94zM311 315
q40 0 62.5 12t22.5 33q0 14 -15.5 23.5t-39.5 9.5q-85 0 -134 -78h104z" />
    <glyph glyph-name="Gbreve" unicode="&#x11e;" horiz-adv-x="744" 
d="M507 748q-97 0 -152 69l82 68q35 -43 88 -43q55 0 107 44l55 -70q-83 -68 -180 -68zM381 260l27 129h313l-60 -288q-62 -54 -140.5 -83.5t-154.5 -29.5q-135 0 -225 87t-90 213q0 108 64 204t166.5 151.5t212.5 55.5q80 0 149 -33t111 -89l-140 -101q-20 33 -55.5 50.5
t-76.5 17.5q-99 0 -178 -78t-79 -173q0 -63 43.5 -106.5t109.5 -43.5q67 0 134 45l15 72h-146z" />
    <glyph glyph-name="gbreve" unicode="&#x11f;" horiz-adv-x="650" 
d="M399 578q-97 0 -152 69l82 68q35 -43 88 -43q55 0 107 44l55 -70q-83 -68 -180 -68zM476 517h170l-98 -469q-21 -100 -110 -160t-210 -60q-142 0 -228 73l73 110q41 -42 134 -42q67 0 117 29t59 72l7 34q-74 -66 -169 -66q-85 0 -137.5 55t-52.5 144q0 114 79 203t189 89
q55 0 99 -24t63 -61zM285 179q48 0 89 31t54 75l3 16q1 5 1 14q0 34 -21 53.5t-59 19.5q-58 0 -102.5 -41t-44.5 -94q0 -36 21.5 -55t58.5 -19z" />
    <glyph glyph-name="Gcommaaccent" unicode="&#x122;" horiz-adv-x="744" 
d="M381 260l27 129h313l-60 -288q-62 -54 -140.5 -83.5t-154.5 -29.5q-135 0 -225 87t-90 213q0 108 64 204t166.5 151.5t212.5 55.5q80 0 149 -33t111 -89l-140 -101q-20 33 -55.5 50.5t-76.5 17.5q-99 0 -178 -78t-79 -173q0 -63 43.5 -106.5t109.5 -43.5q67 0 134 45
l15 72h-146zM343 -35q33 0 52 -23.5t19 -61.5q0 -92 -117 -180l-44 42q43 30 71 74q-31 -1 -46 17.5t-15 48.5q0 34 24 58.5t56 24.5z" />
    <glyph glyph-name="gcommaaccent" unicode="&#x123;" horiz-adv-x="600" 
d="M416 579q-33 0 -52 23.5t-19 61.5q0 92 117 180l44 -42q-43 -30 -71 -74q31 1 46 -17.5t15 -48.5q0 -34 -24 -58.5t-56 -24.5zM476 517h170l-98 -469q-21 -100 -110 -160t-210 -60q-142 0 -228 73l73 110q41 -42 134 -42q67 0 117 29t59 72l7 34q-74 -66 -169 -66
q-85 0 -137.5 55t-52.5 144q0 114 79 203t189 89q55 0 99 -24t63 -61zM285 179q48 0 89 31t54 75l3 16q1 5 1 14q0 34 -21 53.5t-59 19.5q-58 0 -102.5 -41t-44.5 -94q0 -36 21.5 -55t58.5 -19z" />
    <glyph glyph-name="Imacron" unicode="&#x12a;" horiz-adv-x="304" 
d="M75 747l20 96h357l-20 -96h-357zM13 0l143 687h171l-143 -687h-171z" />
    <glyph glyph-name="imacron" unicode="&#x12b;" horiz-adv-x="288" 
d="M32 577l20 96h357l-20 -96h-357zM5 0l108 517h169l-108 -517h-169z" />
    <glyph glyph-name="Iogonek" unicode="&#x12e;" horiz-adv-x="304" 
d="M155 -76q29 0 46 17l16 -85q-40 -29 -90 -29q-46 0 -73 26t-27 71q0 42 25 76h-39l143 687h171l-142 -684l6 -3q-25 0 -42.5 -15t-17.5 -36q0 -25 24 -25z" />
    <glyph glyph-name="iogonek" unicode="&#x12f;" horiz-adv-x="288" 
d="M222 579q-33 0 -53 21t-20 53q0 35 25 59t59 24q30 0 50.5 -21.5t20.5 -52.5q0 -34 -25 -58.5t-57 -24.5zM12 34l101 483h169l-108 -517h-77q-25 0 -42.5 -15t-17.5 -36q0 -25 24 -25q29 0 46 17l16 -85q-40 -29 -90 -29q-46 0 -73 26t-27 71q0 74 68 114z" />
    <glyph glyph-name="Idotaccent" unicode="&#x130;" horiz-adv-x="304" 
d="M265 749q-33 0 -53 21t-20 53q0 35 25 59t59 24q30 0 50.5 -21.5t20.5 -52.5q0 -34 -25 -58.5t-57 -24.5zM13 0l143 687h171l-143 -687h-171z" />
    <glyph glyph-name="dotlessi" unicode="&#x131;" horiz-adv-x="288" 
d="M5 0l108 517h169l-108 -517h-169z" />
    <glyph glyph-name="Kcommaaccent" unicode="&#x136;" horiz-adv-x="705" 
d="M12 0l143 687h171l-57 -270l299 270h219l-328 -296l196 -391h-197l-135 272l-98 -85l-42 -187h-171zM254 -300l-44 42q43 30 71 74q-31 -1 -46 17.5t-15 48.5q0 34 24 58.5t56 24.5q33 0 52 -23.5t19 -61.5q0 -92 -117 -180z" />
    <glyph glyph-name="kcommaaccent" unicode="&#x137;" horiz-adv-x="579" 
d="M636 517l-240 -226l129 -291h-187l-72 183l-69 -63l-25 -120h-170l145 699h170l-79 -383l203 201h195zM234 -35q33 0 52 -23.5t19 -61.5q0 -92 -117 -180l-44 42q43 30 71 74q-31 -1 -46 17.5t-15 48.5q0 34 24 58.5t56 24.5z" />
    <glyph glyph-name="Lacute" unicode="&#x139;" horiz-adv-x="589" 
d="M485 878l-177 -134h-117l147 160zM212 153h329l-32 -153h-501l143 687h170z" />
    <glyph glyph-name="lacute" unicode="&#x13a;" horiz-adv-x="288" 
d="M184 756l147 160l147 -26l-177 -134h-117zM6 0l145 699h170l-145 -699h-170z" />
    <glyph glyph-name="Lcaron" unicode="&#x13d;" horiz-adv-x="589" 
d="M361 475q43 30 71 74q-31 -1 -46 17.5t-15 48.5q0 34 24 58.5t56 24.5q33 0 52 -23.5t19 -61.5q0 -92 -117 -180zM212 153h329l-32 -153h-501l143 687h170z" />
    <glyph glyph-name="lcaron" unicode="&#x13e;" horiz-adv-x="288" 
d="M6 0l145 699h170l-145 -699h-170zM401 434l-44 42q43 30 71 74q-31 -1 -46 17.5t-15 48.5q0 34 24 58.5t56 24.5q33 0 52 -23.5t19 -61.5q0 -92 -117 -180z" />
    <glyph glyph-name="Lslash" unicode="&#x141;" horiz-adv-x="620" 
d="M243 153h329l-32 -153h-501l46 223l-75 -34l28 149l79 35l65 314h170l-47 -229l123 55l-29 -149l-124 -56z" />
    <glyph glyph-name="lslash" unicode="&#x142;" horiz-adv-x="371" 
d="M397 499l-29 -148l-81 -37l-65 -314h-170l48 230l-90 -41l28 149l93 42l66 319h170l-49 -235z" />
    <glyph glyph-name="Nacute" unicode="&#x143;" horiz-adv-x="775" 
d="M371 744l147 160l147 -26l-177 -134h-117zM13 0l143 687h169l215 -406l86 406h171l-143 -687h-168l-216 406l-86 -406h-171z" />
    <glyph glyph-name="nacute" unicode="&#x144;" horiz-adv-x="620" 
d="M564 708l-177 -134h-117l147 160zM420 529q75 0 119.5 -44t44.5 -115q0 -7 -0.5 -12.5t-1.5 -14.5t-2.5 -17.5t-4.5 -25t-6.5 -32.5t-10 -45t-12 -57t-15.5 -74.5t-20 -91.5h-162q66 312 66 326q0 29 -16.5 45.5t-45.5 16.5q-43 0 -78 -29t-43 -68v1l-61 -292h-169
l108 517h169l-10 -49q59 61 151 61z" />
    <glyph glyph-name="Ncommaaccent" unicode="&#x145;" horiz-adv-x="775" 
d="M13 0l143 687h169l215 -406l86 406h171l-143 -687h-168l-216 406l-86 -406h-171zM270 -300l-44 42q43 30 71 74q-31 -1 -46 17.5t-15 48.5q0 34 24 58.5t56 24.5q33 0 52 -23.5t19 -61.5q0 -92 -117 -180z" />
    <glyph glyph-name="ncommaaccent" unicode="&#x146;" horiz-adv-x="620" 
d="M420 529q75 0 119.5 -44t44.5 -115q0 -7 -0.5 -12.5t-1.5 -14.5t-2.5 -17.5t-4.5 -25t-6.5 -32.5t-10 -45t-12 -57t-15.5 -74.5t-20 -91.5h-162q66 312 66 326q0 29 -16.5 45.5t-45.5 16.5q-43 0 -78 -29t-43 -68v1l-61 -292h-169l108 517h169l-10 -49q59 61 151 61z
M248 -35q33 0 52 -23.5t19 -61.5q0 -92 -117 -180l-44 42q43 30 71 74q-31 -1 -46 17.5t-15 48.5q0 34 24 58.5t56 24.5z" />
    <glyph glyph-name="Ncaron" unicode="&#x147;" horiz-adv-x="775" 
d="M420 744l-75 151h98l57 -71l92 71h105l-139 -151h-138zM13 0l143 687h169l215 -406l86 406h171l-143 -687h-168l-216 406l-86 -406h-171z" />
    <glyph glyph-name="ncaron" unicode="&#x148;" horiz-adv-x="620" 
d="M457 574h-138l-75 151h98l57 -71l92 71h105zM420 529q75 0 119.5 -44t44.5 -115q0 -7 -0.5 -12.5t-1.5 -14.5t-2.5 -17.5t-4.5 -25t-6.5 -32.5t-10 -45t-12 -57t-15.5 -74.5t-20 -91.5h-162q66 312 66 326q0 29 -16.5 45.5t-45.5 16.5q-43 0 -78 -29t-43 -68v1l-61 -292
h-169l108 517h169l-10 -49q59 61 151 61z" />
    <glyph glyph-name="Omacron" unicode="&#x14c;" horiz-adv-x="813" 
d="M320 747l20 96h357l-20 -96h-357zM360 -12q-132 0 -221 87t-89 212q0 108 63 204t164.5 152t210.5 56q134 0 222 -86t88 -212q0 -81 -37.5 -158t-98.5 -132.5t-140.5 -89t-161.5 -33.5zM373 143q97 0 174.5 79.5t77.5 172.5q0 64 -42 106.5t-107 42.5q-96 0 -174 -79
t-78 -172q0 -64 42.5 -107t106.5 -43z" />
    <glyph glyph-name="omacron" unicode="&#x14d;" horiz-adv-x="635" 
d="M198 577l20 96h357l-20 -96h-357zM272 -12q-104 0 -173.5 67t-69.5 164q0 83 48.5 155.5t126 113.5t160.5 41q104 0 173.5 -67t69.5 -163q0 -125 -103 -218t-232 -93zM282 129q63 0 115.5 52.5t52.5 113.5q0 39 -27 66t-68 27q-65 0 -117 -51.5t-52 -113.5
q0 -40 27.5 -67t68.5 -27z" />
    <glyph glyph-name="Ohungarumlaut" unicode="&#x150;" horiz-adv-x="813" 
d="M355 744l147 160l147 -26l-177 -134h-117zM601 744l147 160l148 -26l-178 -134h-117zM360 -12q-132 0 -221 87t-89 212q0 108 63 204t164.5 152t210.5 56q134 0 222 -86t88 -212q0 -81 -37.5 -158t-98.5 -132.5t-140.5 -89t-161.5 -33.5zM373 143q97 0 174.5 79.5
t77.5 172.5q0 64 -42 106.5t-107 42.5q-96 0 -174 -79t-78 -172q0 -64 42.5 -107t106.5 -43z" />
    <glyph glyph-name="ohungarumlaut" unicode="&#x151;" horiz-adv-x="635" 
d="M198 574l147 160l147 -26l-177 -134h-117zM444 574l147 160l148 -26l-178 -134h-117zM272 -12q-104 0 -173.5 67t-69.5 164q0 83 48.5 155.5t126 113.5t160.5 41q104 0 173.5 -67t69.5 -163q0 -125 -103 -218t-232 -93zM282 129q63 0 115.5 52.5t52.5 113.5q0 39 -27 66
t-68 27q-65 0 -117 -51.5t-52 -113.5q0 -40 27.5 -67t68.5 -27z" />
    <glyph glyph-name="OE" unicode="&#x152;" horiz-adv-x="1038" 
d="M1054 534h-370l-20 -107h334l-32 -153h-336l-24 -121h369l-32 -153h-584q-132 0 -220 81.5t-88 205.5q0 106 63.5 199.5t165 147t211.5 53.5h595zM381 155h53l79 377h-43q-92 0 -168.5 -74.5t-76.5 -165.5q0 -61 43.5 -99t112.5 -38z" />
    <glyph glyph-name="oe" unicode="&#x153;" horiz-adv-x="977" 
d="M713 212h-114v-2q0 -85 84 -85q70 0 136 49l86 -110q-41 -35 -101.5 -55.5t-120.5 -20.5q-126 0 -190 83q-101 -83 -221 -83q-104 0 -173.5 67t-69.5 164q0 83 48.5 155.5t126 113.5t160.5 41q118 0 190 -84q90 84 215 84q87 0 142.5 -39.5t55.5 -101.5q0 -86 -67 -133
t-187 -43zM763 393q-85 0 -134 -78h104q40 0 62.5 12t22.5 33q0 14 -15.5 23.5t-39.5 9.5zM282 129q63 0 115.5 52.5t52.5 113.5q0 39 -27 66t-68 27q-65 0 -117 -51.5t-52 -113.5q0 -40 27.5 -67t68.5 -27z" />
    <glyph glyph-name="Racute" unicode="&#x154;" horiz-adv-x="707" 
d="M632 878l-177 -134h-117l147 160zM687 490q0 -88 -53.5 -157t-140.5 -99l142 -234h-190l-131 215h-88l-45 -215h-171l143 687h313q99 0 160 -54.5t61 -142.5zM292 531l-34 -160h130q48 0 86.5 33t38.5 73q0 25 -22 39.5t-60 14.5h-139z" />
    <glyph glyph-name="racute" unicode="&#x155;" horiz-adv-x="448" 
d="M472 708l-177 -134h-117l147 160zM262 429q71 100 185 100l-18 -141q-79 0 -136.5 -45t-72.5 -117v2l-48 -228h-169l108 517h169z" />
    <glyph glyph-name="Rcommaaccent" unicode="&#x156;" horiz-adv-x="707" 
d="M687 490q0 -88 -53.5 -157t-140.5 -99l142 -234h-190l-131 215h-88l-45 -215h-171l143 687h313q99 0 160 -54.5t61 -142.5zM292 531l-34 -160h130q48 0 86.5 33t38.5 73q0 25 -22 39.5t-60 14.5h-139zM280 -35q33 0 52 -23.5t19 -61.5q0 -92 -117 -180l-44 42
q43 30 71 74q-31 -1 -46 17.5t-15 48.5q0 34 24 58.5t56 24.5z" />
    <glyph glyph-name="rcommaaccent" unicode="&#x157;" horiz-adv-x="448" 
d="M262 429q71 100 185 100l-18 -141q-79 0 -136.5 -45t-72.5 -117v2l-48 -228h-169l108 517h169zM154 -35q33 0 52 -23.5t19 -61.5q0 -92 -117 -180l-44 42q43 30 71 74q-31 -1 -46 17.5t-15 48.5q0 34 24 58.5t56 24.5z" />
    <glyph glyph-name="Rcaron" unicode="&#x158;" horiz-adv-x="707" 
d="M525 744h-138l-75 151h98l57 -71l92 71h105zM687 490q0 -88 -53.5 -157t-140.5 -99l142 -234h-190l-131 215h-88l-45 -215h-171l143 687h313q99 0 160 -54.5t61 -142.5zM292 531l-34 -160h130q48 0 86.5 33t38.5 73q0 25 -22 39.5t-60 14.5h-139z" />
    <glyph glyph-name="rcaron" unicode="&#x159;" horiz-adv-x="448" 
d="M365 574h-138l-75 151h98l57 -71l92 71h105zM262 429q71 100 185 100l-18 -141q-79 0 -136.5 -45t-72.5 -117v2l-48 -228h-169l108 517h169z" />
    <glyph glyph-name="Sacute" unicode="&#x15a;" horiz-adv-x="640" 
d="M290 744l147 160l147 -26l-177 -134h-117zM281 -12q-88 0 -167 32t-130 87l113 107q40 -40 93 -61.5t104 -21.5q60 0 95 25t35 58q0 19 -20.5 29t-88.5 27q-47 12 -75.5 20.5t-60.5 23.5t-49.5 32.5t-29 44t-11.5 61.5q0 106 85.5 176.5t221.5 70.5q159 0 260 -98
l-105 -114q-37 34 -84.5 51.5t-86.5 17.5q-53 0 -85 -25t-32 -57q0 -21 22 -31.5t89 -26.5q122 -28 173 -66.5t51 -113.5q0 -110 -90.5 -179t-226.5 -69z" />
    <glyph glyph-name="sacute" unicode="&#x15b;" horiz-adv-x="504" 
d="M201 574l147 160l147 -26l-177 -134h-117zM210 -12q-140 0 -232 82l83 101q31 -26 74 -40.5t81 -14.5q37 0 59.5 12.5t22.5 32.5t-67 37q-39 10 -57.5 15.5t-45.5 17t-39.5 24t-22 34t-9.5 49.5q0 83 68 137t168 54q108 0 204 -69l-77 -105q-63 48 -128 48q-33 0 -56 -13
t-23 -31q0 -10 13.5 -17.5t54.5 -18.5q45 -12 68 -20t51.5 -24t41 -40.5t12.5 -60.5q0 -85 -69 -137.5t-175 -52.5z" />
    <glyph glyph-name="Scedilla" unicode="&#x15e;" horiz-adv-x="640" 
d="M374 416q122 -28 173 -66.5t51 -113.5q0 -103 -81 -171t-206 -76l-20 -33q26 -5 41.5 -22t15.5 -41q0 -43 -33.5 -67t-84.5 -24q-57 0 -98 33l33 55q19 -19 49 -19q26 0 42.5 9.5t16.5 24.5q0 18 -17 18q-19 0 -37 -13l-24 27l33 54q-153 19 -244 116l113 107
q40 -40 93 -61.5t104 -21.5q60 0 95 25t35 58q0 19 -20.5 29t-88.5 27q-47 12 -75.5 20.5t-60.5 23.5t-49.5 32.5t-29 44t-11.5 61.5q0 106 85.5 176.5t221.5 70.5q159 0 260 -98l-105 -114q-37 34 -84.5 51.5t-86.5 17.5q-53 0 -85 -25t-32 -57q0 -21 22 -31.5t89 -26.5z
" />
    <glyph glyph-name="scedilla" unicode="&#x15f;" horiz-adv-x="504" 
d="M281 323q45 -12 68 -20t51.5 -24t41 -40.5t12.5 -60.5q0 -79 -59.5 -130t-154.5 -59l-20 -33q26 -5 41.5 -22t15.5 -41q0 -43 -33.5 -67t-84.5 -24q-57 0 -98 33l33 55q19 -19 49 -19q26 0 42.5 9.5t16.5 24.5q0 18 -17 18q-19 0 -37 -13l-24 27l33 55q-106 13 -179 78
l83 101q31 -26 74 -40.5t81 -14.5q37 0 59.5 12.5t22.5 32.5t-67 37q-39 10 -57.5 15.5t-45.5 17t-39.5 24t-22 34t-9.5 49.5q0 83 68 137t168 54q108 0 204 -69l-77 -105q-63 48 -128 48q-33 0 -56 -13t-23 -31q0 -10 13.5 -17.5t54.5 -18.5z" />
    <glyph glyph-name="Scaron" unicode="&#x160;" horiz-adv-x="640" 
d="M339 744l-75 151h98l57 -71l92 71h105l-139 -151h-138zM281 -12q-88 0 -167 32t-130 87l113 107q40 -40 93 -61.5t104 -21.5q60 0 95 25t35 58q0 19 -20.5 29t-88.5 27q-47 12 -75.5 20.5t-60.5 23.5t-49.5 32.5t-29 44t-11.5 61.5q0 106 85.5 176.5t221.5 70.5
q159 0 260 -98l-105 -114q-37 34 -84.5 51.5t-86.5 17.5q-53 0 -85 -25t-32 -57q0 -21 22 -31.5t89 -26.5q122 -28 173 -66.5t51 -113.5q0 -110 -90.5 -179t-226.5 -69z" />
    <glyph glyph-name="scaron" unicode="&#x161;" horiz-adv-x="504" 
d="M250 574l-75 151h98l57 -71l92 71h105l-139 -151h-138zM210 -12q-140 0 -232 82l83 101q31 -26 74 -40.5t81 -14.5q37 0 59.5 12.5t22.5 32.5t-67 37q-39 10 -57.5 15.5t-45.5 17t-39.5 24t-22 34t-9.5 49.5q0 83 68 137t168 54q108 0 204 -69l-77 -105q-63 48 -128 48
q-33 0 -56 -13t-23 -31q0 -10 13.5 -17.5t54.5 -18.5q45 -12 68 -20t51.5 -24t41 -40.5t12.5 -60.5q0 -85 -69 -137.5t-175 -52.5z" />
    <glyph glyph-name="uni0162" unicode="&#x162;" horiz-adv-x="642" 
d="M116 687h588l-31 -153h-209l-111 -534h-42l-27 -44q26 -5 41.5 -22t15.5 -41q0 -43 -33.5 -67t-84.5 -24q-57 0 -98 33l33 55q19 -19 49 -19q26 0 42.5 9.5t16.5 24.5q0 18 -17 18q-19 0 -37 -13l-24 27l38 63h-44l111 534h-208z" />
    <glyph glyph-name="uni0163" unicode="&#x163;" horiz-adv-x="411" 
d="M385 382h-107q-44 -212 -44 -222q0 -31 28 -31q34 0 58 22l18 -118q-27 -21 -62 -33l-27 -44q26 -5 41.5 -22t15.5 -41q0 -43 -33.5 -67t-84.5 -24q-57 0 -98 33l33 55q19 -19 49 -19q26 0 42.5 9.5t16.5 24.5q0 18 -17 18q-19 0 -37 -13l-24 27l32 52q-54 7 -86.5 44
t-32.5 91q0 25 50 258h-69l29 135h68l30 142h162l-30 -142h107z" />
    <glyph glyph-name="Tcaron" unicode="&#x164;" horiz-adv-x="642" 
d="M355 744l-75 151h98l57 -71l92 71h105l-139 -151h-138zM182 0l111 534h-208l31 153h588l-31 -153h-209l-111 -534h-171z" />
    <glyph glyph-name="tcaron" unicode="&#x165;" horiz-adv-x="411" 
d="M581 699q33 0 52 -23.5t19 -61.5q0 -92 -117 -180l-44 42q43 30 71 74q-31 -1 -46 17.5t-15 48.5q0 34 24 58.5t56 24.5zM336 659l-30 -142h107l-28 -135h-107q-44 -212 -44 -222q0 -31 28 -31q34 0 58 22l18 -118q-56 -45 -131 -45q-63 0 -102 38t-39 98q0 25 50 258
h-69l29 135h68l30 142h162z" />
    <glyph glyph-name="Umacron" unicode="&#x16a;" horiz-adv-x="758" 
d="M302 747l20 96h357l-20 -96h-357zM332 -12q-143 0 -217 90.5t-45 229.5l79 379h170l-80 -385q-14 -72 15 -115.5t91 -43.5q68 0 123.5 50t70.5 123l77 371h171l-82 -393q-28 -137 -131.5 -221.5t-241.5 -84.5z" />
    <glyph glyph-name="umacron" unicode="&#x16b;" horiz-adv-x="620" 
d="M572 673l-20 -96h-357l20 96h357zM449 517h169l-108 -517h-169l10 49q-59 -61 -151 -61q-75 0 -119.5 44t-44.5 115q0 7 0.5 12.5t1.5 14.5t2.5 17.5t4.5 25t6.5 32.5t10 45t12 57t15.5 74.5t20 91.5h162q-66 -312 -66 -326q0 -29 16.5 -45.5t45.5 -16.5q43 0 78 29
t43 68v-1z" />
    <glyph glyph-name="Uring" unicode="&#x16e;" horiz-adv-x="758" 
d="M481 748q-42 0 -69 26.5t-27 66.5q0 57 45 99.5t100 42.5q42 0 68.5 -26.5t26.5 -66.5q0 -56 -44.5 -99t-99.5 -43zM495 814q24 0 43 19t19 43q0 17 -11.5 28.5t-29.5 11.5q-24 0 -43.5 -18t-19.5 -42q0 -18 11.5 -30t30.5 -12zM332 -12q-143 0 -217 90.5t-45 229.5
l79 379h170l-80 -385q-14 -72 15 -115.5t91 -43.5q68 0 123.5 50t70.5 123l77 371h171l-82 -393q-28 -137 -131.5 -221.5t-241.5 -84.5z" />
    <glyph glyph-name="uring" unicode="&#x16f;" horiz-adv-x="620" 
d="M374 578q-42 0 -69 26.5t-27 66.5q0 57 45 99.5t100 42.5q42 0 68.5 -26.5t26.5 -66.5q0 -56 -44.5 -99t-99.5 -43zM409 746q-24 0 -43.5 -18t-19.5 -42q0 -18 11.5 -30t30.5 -12q24 0 43 19t19 43q0 17 -11.5 28.5t-29.5 11.5zM449 517h169l-108 -517h-169l10 49
q-59 -61 -151 -61q-75 0 -119.5 44t-44.5 115q0 7 0.5 12.5t1.5 14.5t2.5 17.5t4.5 25t6.5 32.5t10 45t12 57t15.5 74.5t20 91.5h162q-66 -312 -66 -326q0 -29 16.5 -45.5t45.5 -16.5q43 0 78 29t43 68v-1z" />
    <glyph glyph-name="Uhungarumlaut" unicode="&#x170;" horiz-adv-x="758" 
d="M223 744l147 160l147 -26l-177 -134h-117zM469 744l147 160l148 -26l-178 -134h-117zM332 -12q-143 0 -217 90.5t-45 229.5l79 379h170l-80 -385q-14 -72 15 -115.5t91 -43.5q68 0 123.5 50t70.5 123l77 371h171l-82 -393q-28 -137 -131.5 -221.5t-241.5 -84.5z" />
    <glyph glyph-name="uhungarumlaut" unicode="&#x171;" horiz-adv-x="620" 
d="M410 708l-177 -134h-117l147 160zM479 574h-117l147 160l148 -26zM388 225l61 292h169l-108 -517h-169l10 49q-59 -61 -151 -61q-75 0 -119.5 44t-44.5 115q0 7 0.5 12.5t1.5 14.5t2.5 17.5t4.5 25t6.5 32.5t10 45t12 57t15.5 74.5t20 91.5h162q-66 -312 -66 -326
q0 -29 16.5 -45.5t45.5 -16.5q43 0 78 29t43 68v-1z" />
    <glyph glyph-name="Uogonek" unicode="&#x172;" horiz-adv-x="758" 
d="M616 687h171l-82 -393q-28 -137 -131.5 -221.5t-241.5 -84.5h-20q-22 -15 -22 -39q0 -25 24 -25q29 0 46 17l16 -85q-40 -29 -90 -29q-46 0 -73 26t-27 71q0 47 31 83q-89 33 -129 114t-18 187l79 379h170l-80 -385q-14 -72 15 -115.5t91 -43.5q68 0 123.5 50t70.5 123z
" />
    <glyph glyph-name="uogonek" unicode="&#x173;" horiz-adv-x="620" 
d="M475 -76q29 0 46 17l16 -85q-40 -29 -90 -29q-46 0 -73 26t-27 71q0 42 25 76h-31l10 49q-59 -61 -151 -61q-75 0 -119.5 44t-44.5 115q0 7 0.5 12.5t1.5 14.5t2.5 17.5t4.5 25t6.5 32.5t10 45t12 57t15.5 74.5t20 91.5h162q-66 -312 -66 -326q0 -29 16.5 -45.5
t45.5 -16.5q43 0 78 29t43 68v-1l61 292h169l-108 -517h1q-25 0 -42.5 -15t-17.5 -36q0 -25 24 -25z" />
    <glyph glyph-name="Wcircumflex" unicode="&#x174;" horiz-adv-x="1077" 
d="M460 744l138 151h138l76 -151h-98l-58 71l-91 -71h-105zM160 0l-57 687h182l15 -429l233 429h185l51 -429l196 429h187l-342 -687h-172l-60 435l-246 -435h-172z" />
    <glyph glyph-name="wcircumflex" unicode="&#x175;" horiz-adv-x="844" 
d="M308 574l138 151h138l76 -151h-98l-58 71l-91 -71h-105zM136 0l-69 517h160l26 -290l151 290h140l27 -290l148 290h168l-284 -517h-151l-20 295l-145 -295h-151z" />
    <glyph glyph-name="Ycircumflex" unicode="&#x176;" horiz-adv-x="701" 
d="M257 744l138 151h138l76 -151h-98l-58 71l-91 -71h-105zM209 0l52 237l-173 450h160l117 -302l233 302h194l-360 -450l-52 -237h-171z" />
    <glyph glyph-name="ycircumflex" unicode="&#x177;" horiz-adv-x="604" 
d="M190 574l138 151h138l76 -151h-98l-58 71l-91 -71h-105zM106 -180q-76 0 -141 40l48 106q37 -23 64 -23q18 0 38.5 8.5t27.5 19.5l23 23l-102 523h171l48 -341l187 341h175l-315 -538q-94 -159 -224 -159z" />
    <glyph glyph-name="Ydieresis" unicode="&#x178;" horiz-adv-x="701" 
d="M338 749q-33 0 -53 21t-20 53q0 35 25 59t59 24q30 0 50.5 -21.5t20.5 -52.5q0 -34 -25 -58.5t-57 -24.5zM557 749q-33 0 -53.5 21.5t-20.5 52.5q0 35 25.5 59t58.5 24q32 0 52 -21t20 -52q0 -35 -25 -59.5t-57 -24.5zM209 0l52 237l-173 450h160l117 -302l233 302h194
l-360 -450l-52 -237h-171z" />
    <glyph glyph-name="Zacute" unicode="&#x179;" horiz-adv-x="662" 
d="M323 744l147 160l147 -26l-177 -134h-117zM-7 0l23 128l428 406h-334l32 153h570l-25 -128l-425 -406h344l-32 -153h-581z" />
    <glyph glyph-name="zacute" unicode="&#x17a;" horiz-adv-x="540" 
d="M228 574l147 160l147 -26l-177 -134h-117zM-14 0l22 118l298 257h-236l30 142h457l-23 -118l-298 -257h246l-31 -142h-465z" />
    <glyph glyph-name="Zdotaccent" unicode="&#x17b;" horiz-adv-x="662" 
d="M451 749q-33 0 -53 21t-20 53q0 35 25 59t59 24q30 0 50.5 -21.5t20.5 -52.5q0 -34 -25 -58.5t-57 -24.5zM-7 0l23 128l428 406h-334l32 153h570l-25 -128l-425 -406h344l-32 -153h-581z" />
    <glyph glyph-name="zdotaccent" unicode="&#x17c;" horiz-adv-x="540" 
d="M356 579q-33 0 -53 21t-20 53q0 35 25 59t59 24q30 0 50.5 -21.5t20.5 -52.5q0 -34 -25 -58.5t-57 -24.5zM-14 0l22 118l298 257h-236l30 142h457l-23 -118l-298 -257h246l-31 -142h-465z" />
    <glyph glyph-name="Zcaron" unicode="&#x17d;" horiz-adv-x="662" 
d="M372 744l-75 151h98l57 -71l92 71h105l-139 -151h-138zM-7 0l23 128l428 406h-334l32 153h570l-25 -128l-425 -406h344l-32 -153h-581z" />
    <glyph glyph-name="zcaron" unicode="&#x17e;" horiz-adv-x="540" 
d="M277 574l-75 151h98l57 -71l92 71h105l-139 -151h-138zM-14 0l22 118l298 257h-236l30 142h457l-23 -118l-298 -257h246l-31 -142h-465z" />
    <glyph glyph-name="uni0237" unicode="&#x237;" horiz-adv-x="288" 
d="M-23 -178q-65 0 -113 25l32 118q14 -6 43 -6q24 0 45 19t26 44l103 495h169l-110 -528q-15 -76 -69 -121.5t-126 -45.5z" />
    <glyph glyph-name="circumflex" unicode="&#x2c6;" horiz-adv-x="478" 
d="M129 574l138 151h138l76 -151h-98l-58 71l-91 -71h-105z" />
    <glyph glyph-name="caron" unicode="&#x2c7;" horiz-adv-x="478" 
d="M235 574l-75 151h98l57 -71l92 71h105l-139 -151h-138z" />
    <glyph glyph-name="breve" unicode="&#x2d8;" horiz-adv-x="458" 
d="M296 578q-96 0 -152 69l82 68q35 -43 88 -43q55 0 107 44l55 -70q-83 -68 -180 -68z" />
    <glyph glyph-name="dotaccent" unicode="&#x2d9;" horiz-adv-x="283" 
d="M220 579q-33 0 -53 21t-20 53q0 35 25 59t59 24q30 0 50.5 -21.5t20.5 -52.5q0 -34 -25 -58.5t-57 -24.5z" />
    <glyph glyph-name="ring" unicode="&#x2da;" horiz-adv-x="361" 
d="M247 578q-42 0 -69 26.5t-27 66.5q0 57 45 99.5t100 42.5q42 0 68.5 -26.5t26.5 -66.5q0 -56 -44.5 -99t-99.5 -43zM261 644q24 0 43 19t19 43q0 17 -11.5 28.5t-29.5 11.5q-24 0 -43.5 -18t-19.5 -42q0 -18 11.5 -30t30.5 -12z" />
    <glyph glyph-name="ogonek" unicode="&#x2db;" horiz-adv-x="333" 
d="M96 -173q-46 0 -73 26t-27 71q0 74 68 114l96 -38q-25 0 -42.5 -15t-17.5 -36q0 -25 24 -25q29 0 46 17l16 -85q-40 -29 -90 -29z" />
    <glyph glyph-name="tilde" unicode="&#x2dc;" horiz-adv-x="428" 
d="M359 572q-36 0 -76 23t-47 23q-40 0 -61 -54l-77 25q22 68 53 99t79 31q35 0 75.5 -23t47.5 -23q38 0 60 53l78 -25q-22 -68 -53.5 -98.5t-78.5 -30.5z" />
    <glyph glyph-name="hungarumlaut" unicode="&#x2dd;" horiz-adv-x="639" 
d="M129 574l147 160l147 -26l-177 -134h-117zM375 574l147 160l148 -26l-178 -134h-117z" />
    <glyph glyph-name="uni0326" unicode="&#x326;" horiz-adv-x="0" 
d="M-271 -300l-44 42q43 30 71 74q-31 -1 -46 17.5t-15 48.5q0 34 24 58.5t56 24.5q33 0 52 -23.5t19 -61.5q0 -92 -117 -180z" />
    <glyph glyph-name="Wgrave" unicode="&#x1e80;" horiz-adv-x="1077" 
d="M577 744l-122 134l149 26l81 -160h-108zM160 0l-57 687h182l15 -429l233 429h185l51 -429l196 429h187l-342 -687h-172l-60 435l-246 -435h-172z" />
    <glyph glyph-name="wgrave" unicode="&#x1e81;" horiz-adv-x="844" 
d="M426 574l-122 134l149 26l81 -160h-108zM136 0l-69 517h160l26 -290l151 290h140l27 -290l148 290h168l-284 -517h-151l-20 295l-145 -295h-151z" />
    <glyph glyph-name="Wacute" unicode="&#x1e82;" horiz-adv-x="1077" 
d="M584 744l147 160l147 -26l-177 -134h-117zM160 0l-57 687h182l15 -429l233 429h185l51 -429l196 429h187l-342 -687h-172l-60 435l-246 -435h-172z" />
    <glyph glyph-name="wacute" unicode="&#x1e83;" horiz-adv-x="844" 
d="M427 574l147 160l147 -26l-177 -134h-117zM136 0l-69 517h160l26 -290l151 290h140l27 -290l148 290h168l-284 -517h-151l-20 295l-145 -295h-151z" />
    <glyph glyph-name="Wdieresis" unicode="&#x1e84;" horiz-adv-x="1077" 
d="M541 749q-33 0 -53 21t-20 53q0 35 25 59t59 24q30 0 50.5 -21.5t20.5 -52.5q0 -34 -25 -58.5t-57 -24.5zM760 749q-33 0 -53.5 21.5t-20.5 52.5q0 35 25.5 59t58.5 24q32 0 52 -21t20 -52q0 -35 -25 -59.5t-57 -24.5zM160 0l-57 687h182l15 -429l233 429h185l51 -429
l196 429h187l-342 -687h-172l-60 435l-246 -435h-172z" />
    <glyph glyph-name="wdieresis" unicode="&#x1e85;" horiz-adv-x="844" 
d="M389 579q-33 0 -53 21t-20 53q0 35 25 59t59 24q30 0 50.5 -21.5t20.5 -52.5q0 -34 -25 -58.5t-57 -24.5zM608 579q-33 0 -53.5 21.5t-20.5 52.5q0 35 25.5 59t58.5 24q32 0 52 -21t20 -52q0 -35 -25 -59.5t-57 -24.5zM136 0l-69 517h160l26 -290l151 290h140l27 -290
l148 290h168l-284 -517h-151l-20 295l-145 -295h-151z" />
    <glyph glyph-name="uni1EB8" unicode="&#x1eb8;" horiz-adv-x="646" 
d="M662 534h-370l-20 -107h334l-32 -153h-336l-24 -121h369l-32 -153h-541l143 687h541zM262 -33q30 0 50.5 -21.5t20.5 -52.5q0 -34 -25 -58.5t-57 -24.5q-33 0 -53 21t-20 53q0 35 25 59t59 24z" />
    <glyph glyph-name="uni1EB9" unicode="&#x1eb9;" horiz-adv-x="600" 
d="M291 212h-114v-2q0 -85 84 -85q70 0 136 49l86 -110q-41 -35 -101.5 -55.5t-120.5 -20.5q-106 0 -169.5 60.5t-63.5 159.5q0 133 93.5 227t225.5 94q87 0 142.5 -39.5t55.5 -101.5q0 -86 -67 -133t-187 -43zM341 393q-85 0 -134 -78h104q40 0 62.5 12t22.5 33
q0 14 -15.5 23.5t-39.5 9.5zM203 -68q30 0 50.5 -21.5t20.5 -52.5q0 -34 -25 -58.5t-57 -24.5q-33 0 -53 21t-20 53q0 35 25 59t59 24z" />
    <glyph glyph-name="uni1EBC" unicode="&#x1ebc;" horiz-adv-x="646" 
d="M392 788q-40 0 -61 -54l-77 25q22 68 53 99t79 31q35 0 75.5 -23t47.5 -23q38 0 60 53l78 -25q-22 -68 -53.5 -98.5t-78.5 -30.5q-36 0 -76 23t-47 23zM662 534h-370l-20 -107h334l-32 -153h-336l-24 -121h369l-32 -153h-541l143 687h541z" />
    <glyph glyph-name="uni1EBD" unicode="&#x1ebd;" horiz-adv-x="562" 
d="M316 618q-40 0 -61 -54l-77 25q22 68 53 99t79 31q35 0 75.5 -23t47.5 -23q38 0 60 53l78 -25q-22 -68 -53.5 -98.5t-78.5 -30.5q-36 0 -76 23t-47 23zM347 529q87 0 142.5 -39.5t55.5 -101.5q0 -86 -67 -133t-187 -43h-114v-2q0 -85 84 -85q70 0 136 49l86 -110
q-41 -35 -101.5 -55.5t-120.5 -20.5q-106 0 -169.5 60.5t-63.5 159.5q0 133 93.5 227t225.5 94zM311 315q40 0 62.5 12t22.5 33q0 14 -15.5 23.5t-39.5 9.5q-85 0 -134 -78h104z" />
    <glyph glyph-name="Ygrave" unicode="&#x1ef2;" horiz-adv-x="701" 
d="M426 744l-122 134l149 26l81 -160h-108zM209 0l52 237l-173 450h160l117 -302l233 302h194l-360 -450l-52 -237h-171z" />
    <glyph glyph-name="ygrave" unicode="&#x1ef3;" horiz-adv-x="604" 
d="M359 574l-122 134l149 26l81 -160h-108zM106 -180q-76 0 -141 40l48 106q37 -23 64 -23q18 0 38.5 8.5t27.5 19.5l23 23l-102 523h171l48 -341l187 341h175l-315 -538q-94 -159 -224 -159z" />
    <glyph glyph-name="endash" unicode="&#x2013;" horiz-adv-x="570" 
d="M31 207l29 139h486l-29 -139h-486z" />
    <glyph glyph-name="emdash" unicode="&#x2014;" horiz-adv-x="875" 
d="M31 207l29 139h791l-29 -139h-791z" />
    <glyph glyph-name="quoteleft" unicode="&#x2018;" horiz-adv-x="302" 
d="M248 702l57 -53q-55 -39 -92 -96q35 0 58.5 -23.5t23.5 -61.5q0 -46 -34.5 -80.5t-77.5 -34.5q-42 0 -66.5 30t-24.5 79q0 121 156 240z" />
    <glyph glyph-name="quoteright" unicode="&#x2019;" horiz-adv-x="302" 
d="M166 350l-57 53q55 39 92 96q-35 0 -58.5 23.5t-23.5 61.5q0 46 34.5 80.5t77.5 34.5q42 0 66.5 -30t24.5 -79q0 -121 -156 -240z" />
    <glyph glyph-name="quotedblleft" unicode="&#x201c;" horiz-adv-x="582" 
d="M246 695l57 -53q-55 -39 -92 -96q35 0 58.5 -23.5t23.5 -61.5q0 -46 -34.5 -80.5t-77.5 -34.5q-42 0 -66.5 30t-24.5 79q0 121 156 240zM526 695l57 -53q-55 -39 -92 -96q35 0 58.5 -23.5t23.5 -61.5q0 -46 -34.5 -80.5t-77.5 -34.5q-42 0 -66.5 30t-24.5 79
q0 121 156 240z" />
    <glyph glyph-name="quotedblright" unicode="&#x201d;" horiz-adv-x="582" 
d="M166 350l-57 53q55 39 92 96q-35 0 -58.5 23.5t-23.5 61.5q0 46 34.5 80.5t77.5 34.5q42 0 66.5 -30t24.5 -79q0 -121 -156 -240zM446 350l-57 53q55 39 92 96q-35 0 -58.5 23.5t-23.5 61.5q0 46 34.5 80.5t77.5 34.5q42 0 66.5 -30t24.5 -79q0 -121 -156 -240z" />
    <glyph glyph-name="ellipsis" unicode="&#x2026;" horiz-adv-x="863" 
d="M107 -12q-41 0 -67 27t-26 67q0 47 34.5 79.5t80.5 32.5q39 0 64.5 -26.5t25.5 -64.5q0 -47 -34 -81t-78 -34zM387 -12q-41 0 -67 27t-26 67q0 47 34.5 79.5t80.5 32.5q39 0 64.5 -26.5t25.5 -64.5q0 -47 -34 -81t-78 -34zM667 -12q-41 0 -67 27t-26 67q0 47 34.5 79.5
t80.5 32.5q39 0 64.5 -26.5t25.5 -64.5q0 -47 -34 -81t-78 -34z" />
    <glyph glyph-name="perthousand" unicode="&#x2030;" horiz-adv-x="1242" 
d="M237 340q-69 0 -110 41t-41 105q0 85 59 146.5t144 61.5q71 0 111.5 -41.5t40.5 -105.5q0 -85 -59 -146t-145 -61zM70 0l624 687h123l-623 -687h-124zM236 437q40 0 69 36t29 77q0 22 -11.5 34.5t-31.5 12.5q-41 0 -69.5 -36.5t-28.5 -77.5q0 -46 43 -46zM596 -11
q-70 0 -111.5 41.5t-41.5 105.5q0 84 60 146t145 62q70 0 110.5 -41.5t40.5 -106.5q0 -84 -59.5 -145.5t-143.5 -61.5zM987 -11q-71 0 -112 41.5t-41 105.5q0 84 60 146t145 62q70 0 110.5 -41.5t40.5 -106.5q0 -84 -59 -145.5t-144 -61.5zM594 86q41 0 69.5 36.5t28.5 77.5
q0 46 -43 46q-41 0 -69.5 -35.5t-28.5 -78.5q0 -46 43 -46zM985 86q41 0 69.5 36.5t28.5 77.5q0 46 -43 46q-41 0 -69.5 -35.5t-28.5 -78.5q0 -22 11.5 -34t31.5 -12z" />
    <glyph glyph-name="Euro" unicode="&#x20ac;" horiz-adv-x="705" 
d="M375 143q40 0 88 22t81 57l108 -121q-57 -50 -138.5 -81.5t-153.5 -31.5q-113 0 -199.5 73.5t-104.5 183.5h-72l15 75h54q3 32 10 58h-51l15 75h63q53 108 161.5 177t231.5 69q81 0 150.5 -34t111.5 -88l-140 -101q-44 68 -132 68q-108 0 -187 -91h213l-15 -75h-243
q-12 -29 -15 -58h245l-15 -75h-223q16 -46 55.5 -74t86.5 -28z" />
    <glyph glyph-name="minus" unicode="&#x2212;" horiz-adv-x="606" 
d="M59 267l28 134h491l-28 -134h-491z" />
    <glyph glyph-name="a.alt" horiz-adv-x="584" 
d="M343 529q91 0 147 -48.5t56 -128.5q0 -6 -0.5 -11t-1.5 -13.5t-2 -16t-4.5 -23t-6.5 -30.5t-8.5 -43t-11.5 -55t-15.5 -71.5t-18.5 -88.5h-163q1 6 3.5 18t4.5 19q-62 -49 -142 -49q-77 0 -125.5 40t-48.5 104q0 85 73.5 139t171.5 54q61 0 125 -29q6 29 6 40
q0 58 -87 58q-66 0 -140 -36l-43 115q123 56 231 56zM347 170l2 -3q1 3 3.5 17.5t4.5 20.5q-35 14 -83 14q-40 0 -73 -25.5t-33 -57.5q0 -36 53 -36q43 0 79.5 20.5t46.5 49.5z" />
    <glyph glyph-name="aacute.alt" horiz-adv-x="584" 
d="M546 708l-177 -134h-117l147 160zM343 529q91 0 147 -48.5t56 -128.5q0 -6 -0.5 -11t-1.5 -13.5t-2 -16t-4.5 -23t-6.5 -30.5t-8.5 -43t-11.5 -55t-15.5 -71.5t-18.5 -88.5h-163q1 6 3.5 18t4.5 19q-62 -49 -142 -49q-77 0 -125.5 40t-48.5 104q0 85 73.5 139t171.5 54
q61 0 125 -29q6 29 6 40q0 58 -87 58q-66 0 -140 -36l-43 115q123 56 231 56zM347 170l2 -3q1 3 3.5 17.5t4.5 20.5q-35 14 -83 14q-40 0 -73 -25.5t-33 -57.5q0 -36 53 -36q43 0 79.5 20.5t46.5 49.5z" />
    <glyph glyph-name="abreve.alt" horiz-adv-x="584" 
d="M370 578q-96 0 -152 69l82 68q35 -43 88 -43q55 0 107 44l55 -70q-83 -68 -180 -68zM343 529q91 0 147 -48.5t56 -128.5q0 -6 -0.5 -11t-1.5 -13.5t-2 -16t-4.5 -23t-6.5 -30.5t-8.5 -43t-11.5 -55t-15.5 -71.5t-18.5 -88.5h-163q1 6 3.5 18t4.5 19q-62 -49 -142 -49
q-77 0 -125.5 40t-48.5 104q0 85 73.5 139t171.5 54q61 0 125 -29q6 29 6 40q0 58 -87 58q-66 0 -140 -36l-43 115q123 56 231 56zM347 170l2 -3q1 3 3.5 17.5t4.5 20.5q-35 14 -83 14q-40 0 -73 -25.5t-33 -57.5q0 -36 53 -36q43 0 79.5 20.5t46.5 49.5z" />
    <glyph glyph-name="acircumflex.alt" horiz-adv-x="584" 
d="M386 645l-91 -71h-105l138 151h138l76 -151h-98zM343 529q91 0 147 -48.5t56 -128.5q0 -6 -0.5 -11t-1.5 -13.5t-2 -16t-4.5 -23t-6.5 -30.5t-8.5 -43t-11.5 -55t-15.5 -71.5t-18.5 -88.5h-163q1 6 3.5 18t4.5 19q-62 -49 -142 -49q-77 0 -125.5 40t-48.5 104
q0 85 73.5 139t171.5 54q61 0 125 -29q6 29 6 40q0 58 -87 58q-66 0 -140 -36l-43 115q123 56 231 56zM347 170l2 -3q1 3 3.5 17.5t4.5 20.5q-35 14 -83 14q-40 0 -73 -25.5t-33 -57.5q0 -36 53 -36q43 0 79.5 20.5t46.5 49.5z" />
    <glyph glyph-name="adieresis.alt" horiz-adv-x="584" 
d="M271 579q-33 0 -53 21t-20 53q0 35 25 59t59 24q30 0 50.5 -21.5t20.5 -52.5q0 -34 -25 -58.5t-57 -24.5zM500 736q32 0 52 -21t20 -52q0 -35 -25 -59.5t-57 -24.5q-33 0 -53.5 21.5t-20.5 52.5q0 35 25.5 59t58.5 24zM343 529q91 0 147 -48.5t56 -128.5q0 -6 -0.5 -11
t-1.5 -13.5t-2 -16t-4.5 -23t-6.5 -30.5t-8.5 -43t-11.5 -55t-15.5 -71.5t-18.5 -88.5h-163q1 6 3.5 18t4.5 19q-62 -49 -142 -49q-77 0 -125.5 40t-48.5 104q0 85 73.5 139t171.5 54q61 0 125 -29q6 29 6 40q0 58 -87 58q-66 0 -140 -36l-43 115q123 56 231 56zM347 170
l2 -3q1 3 3.5 17.5t4.5 20.5q-35 14 -83 14q-40 0 -73 -25.5t-33 -57.5q0 -36 53 -36q43 0 79.5 20.5t46.5 49.5z" />
    <glyph glyph-name="agrave.alt" horiz-adv-x="584" 
d="M467 574h-108l-122 134l149 26zM343 529q91 0 147 -48.5t56 -128.5q0 -6 -0.5 -11t-1.5 -13.5t-2 -16t-4.5 -23t-6.5 -30.5t-8.5 -43t-11.5 -55t-15.5 -71.5t-18.5 -88.5h-163q1 6 3.5 18t4.5 19q-62 -49 -142 -49q-77 0 -125.5 40t-48.5 104q0 85 73.5 139t171.5 54
q61 0 125 -29q6 29 6 40q0 58 -87 58q-66 0 -140 -36l-43 115q123 56 231 56zM347 170l2 -3q1 3 3.5 17.5t4.5 20.5q-35 14 -83 14q-40 0 -73 -25.5t-33 -57.5q0 -36 53 -36q43 0 79.5 20.5t46.5 49.5z" />
    <glyph glyph-name="amacron.alt" horiz-adv-x="584" 
d="M210 673h357l-20 -96h-357zM343 529q91 0 147 -48.5t56 -128.5q0 -6 -0.5 -11t-1.5 -13.5t-2 -16t-4.5 -23t-6.5 -30.5t-8.5 -43t-11.5 -55t-15.5 -71.5t-18.5 -88.5h-163q1 6 3.5 18t4.5 19q-62 -49 -142 -49q-77 0 -125.5 40t-48.5 104q0 85 73.5 139t171.5 54
q61 0 125 -29q6 29 6 40q0 58 -87 58q-66 0 -140 -36l-43 115q123 56 231 56zM347 170l2 -3q1 3 3.5 17.5t4.5 20.5q-35 14 -83 14q-40 0 -73 -25.5t-33 -57.5q0 -36 53 -36q43 0 79.5 20.5t46.5 49.5z" />
    <glyph glyph-name="aogonek.alt" horiz-adv-x="584" 
d="M448 -76q29 0 46 17l16 -85q-40 -29 -90 -29q-46 0 -73 26t-27 71q0 42 25 76h-31q1 6 3.5 18t4.5 19q-62 -49 -142 -49q-77 0 -125.5 40t-48.5 104q0 85 73.5 139t171.5 54q61 0 125 -29q6 29 6 40q0 58 -87 58q-66 0 -140 -36l-43 115q123 56 231 56q91 0 147 -48.5
t56 -128.5q0 -6 -0.5 -11t-1.5 -13.5t-2 -16t-4 -23t-6.5 -30.5t-9 -42.5t-11 -54t-15 -70.5t-18.5 -88l6 -3q-25 0 -42.5 -15t-17.5 -36q0 -25 24 -25zM347 170l2 -3q1 3 3.5 17.5t4.5 20.5q-35 14 -83 14q-40 0 -73 -25.5t-33 -57.5q0 -36 53 -36q43 0 79.5 20.5
t46.5 49.5z" />
    <glyph glyph-name="aring.alt" horiz-adv-x="584" 
d="M369 578q-42 0 -69 26.5t-27 66.5q0 57 45 99.5t100 42.5q42 0 68.5 -26.5t26.5 -66.5q0 -56 -44.5 -99t-99.5 -43zM404 746q-24 0 -43.5 -18t-19.5 -42q0 -18 11.5 -30t30.5 -12q24 0 43 19t19 43q0 17 -11.5 28.5t-29.5 11.5zM343 529q91 0 147 -48.5t56 -128.5
q0 -6 -0.5 -11t-1.5 -13.5t-2 -16t-4.5 -23t-6.5 -30.5t-8.5 -43t-11.5 -55t-15.5 -71.5t-18.5 -88.5h-163q1 6 3.5 18t4.5 19q-62 -49 -142 -49q-77 0 -125.5 40t-48.5 104q0 85 73.5 139t171.5 54q61 0 125 -29q6 29 6 40q0 58 -87 58q-66 0 -140 -36l-43 115
q123 56 231 56zM347 170l2 -3q1 3 3.5 17.5t4.5 20.5q-35 14 -83 14q-40 0 -73 -25.5t-33 -57.5q0 -36 53 -36q43 0 79.5 20.5t46.5 49.5z" />
    <glyph glyph-name="atilde.alt" horiz-adv-x="584" 
d="M324 618q-40 0 -61 -54l-77 25q22 68 53 99t79 31q35 0 75.5 -23t47.5 -23q38 0 60 53l78 -25q-22 -68 -53.5 -98.5t-78.5 -30.5q-36 0 -76 23t-47 23zM343 529q91 0 147 -48.5t56 -128.5q0 -6 -0.5 -11t-1.5 -13.5t-2 -16t-4.5 -23t-6.5 -30.5t-8.5 -43t-11.5 -55
t-15.5 -71.5t-18.5 -88.5h-163q1 6 3.5 18t4.5 19q-62 -49 -142 -49q-77 0 -125.5 40t-48.5 104q0 85 73.5 139t171.5 54q61 0 125 -29q6 29 6 40q0 58 -87 58q-66 0 -140 -36l-43 115q123 56 231 56zM347 170l2 -3q1 3 3.5 17.5t4.5 20.5q-35 14 -83 14q-40 0 -73 -25.5
t-33 -57.5q0 -36 53 -36q43 0 79.5 20.5t46.5 49.5z" />
    <glyph glyph-name="ascender" 
d="M4 0l145 699h170l-145 -699h-170z" />
    <glyph glyph-name="descender" 
d="M-32 -172l143 689h170l-143 -689h-170z" />
    </font>
</defs>
</svg>
